<?xml version="1.0" encoding="utf-8"?>
<!-- Generator: Adobe Illustrator 16.0.0, SVG Export Plug-In . SVG Version: 6.00 Build 0)  -->
<!DOCTYPE svg PUBLIC "-//W3C//DTD SVG 1.1//EN" "http://www.w3.org/Graphics/SVG/1.1/DTD/svg11.dtd">
<svg version="1.1" id="Layer_1" xmlns="http://www.w3.org/2000/svg" xmlns:xlink="http://www.w3.org/1999/xlink" x="0px" y="0px"
	 width="326px" height="228.085px" viewBox="0 0 326 228.085" enable-background="new 0 0 326 228.085" xml:space="preserve">
<path fill-rule="evenodd" clip-rule="evenodd" fill="#FFFFFF" d="M123.55,0.02c37.372-0.572,60.249,11.294,76,32c3,5,6,10,9,15
	c9.666,4,19.334,8,29,12c27.293,15.564,55.22,33.925,73,59c17.898,25.241,24.24,67.402-3,88c-45.78,34.617-101.672,20.188-159,12
	c-7.999,2-16.001,4-24,6c-22.813,4.186-44.835-4.866-57-13c-14.555-9.731-27.004-26.839-34-44c-1.667-5.999-3.333-12.001-5-18
	c-12.265-19.658-39.256-43.787-24-79c11.427-26.375,34.744-25.833,60-39c7.333-6,14.667-12,22-18
	C97.569,6.36,110.725,5.685,123.55,0.02z"/>
</svg>
