<?xml version="1.0" encoding="utf-8"?>
<!-- Generator: Adobe Illustrator 16.0.0, SVG Export Plug-In . SVG Version: 6.00 Build 0)  -->
<!DOCTYPE svg PUBLIC "-//W3C//DTD SVG 1.1//EN" "http://www.w3.org/Graphics/SVG/1.1/DTD/svg11.dtd">
<svg version="1.1" id="Layer_1" xmlns="http://www.w3.org/2000/svg" xmlns:xlink="http://www.w3.org/1999/xlink" x="0px" y="0px"
	 width="337.633px" height="227.757px" viewBox="-2.213 8.25 337.633 227.757" enable-background="new -2.213 8.25 337.633 227.757"
	 xml:space="preserve">
<path fill="#BC111D" d="M97.435,12.757c36.152-9.489,61.202-3.437,81.446,12.903c4.108,4.138,8.217,8.275,12.325,12.414
	c10.342,1.573,20.686,3.146,31.028,4.719c30.222,8.588,61.729,19.74,84.988,39.837c23.413,20.23,39.65,59.652,18.124,86.166
	c-36.177,44.558-93.897,43.909-151.521,49.663c-7.289,3.854-14.581,7.709-21.87,11.563c-21.15,9.52-44.698,5.994-58.455,1.004
	c-16.459-5.97-101.277-84.011-94.881-121.85c4.791-28.343,27.561-33.391,48.937-52.214c5.686-7.579,11.373-15.158,17.059-22.737
	C73.723,25.125,86.336,21.324,97.435,12.757z"/>
</svg>
