<?xml version="1.0" standalone="no"?>
<!DOCTYPE svg PUBLIC "-//W3C//DTD SVG 1.1//EN" "http://www.w3.org/Graphics/SVG/1.1/DTD/svg11.dtd" >
<svg xmlns="http://www.w3.org/2000/svg" xmlns:xlink="http://www.w3.org/1999/xlink" version="1.1">
<metadata></metadata>
<defs>
<font id="comsans-boldbold" horiz-adv-x="1200" >
<font-face units-per-em="2048" ascent="1638" descent="-410" />
<missing-glyph horiz-adv-x="852" />
<glyph horiz-adv-x="0" />
<glyph horiz-adv-x="682" />
<glyph unicode=" "  horiz-adv-x="852" />
<glyph unicode="&#x09;" horiz-adv-x="852" />
<glyph unicode="&#xa0;" horiz-adv-x="852" />
<glyph unicode="!" horiz-adv-x="467" d="M77 104q0 50 39.5 83.5t88.5 33.5q58 0 107 -62q45 -56 45 -104q0 -49 -39 -83.5t-89 -34.5q-57 0 -107 61q-45 57 -45 106zM104 627q0 132 2 397t2 398q0 51 36 85t88 34q53 0 88.5 -34t35.5 -85v-1019q0 -51 -35 -84.5t-89 -33.5q-53 0 -88.5 33.5t-35.5 84.5 q0 38 -2 112t-2 112z" />
<glyph unicode="&#x22;" horiz-adv-x="860" d="M73 1075q0 57 3 169.5t3 169.5q0 47 35.5 78.5t88.5 31.5q52 0 87.5 -31.5t35.5 -78.5q0 -55 -2.5 -164t-2.5 -163q0 -15 4.5 -43t4.5 -42q0 -47 -38.5 -77t-87.5 -30q-131 0 -131 180zM513 1001q-1 135 10 390q7 65 38.5 97.5t89.5 32.5q53 0 88.5 -32t35.5 -79 q0 -13 -3 -38t-3 -37l-9 -334q-1 -47 -35.5 -78.5t-88.5 -31.5q-52 0 -88 32q-36 30 -35 78z" />
<glyph unicode="#" horiz-adv-x="1656" d="M-26 497q0 97 108 107q10 1 216 0q94 233 142 370q-44 -1 -115 0q-87 2 -114 2q-54 0 -90 33t-36 84q0 106 119 119q104 2 312 9l64 179q54 120 112 120q127 0 127 -116q0 -52 -44 -182h342q25 97 68 229q30 96 118 96q50 0 88.5 -33t38.5 -83q0 -28 -55 -207q59 3 86 3 q172 0 172 -121q0 -89 -85 -116q-42 -14 -156 -14q-12 0 -41 1h-42q-41 -123 -123 -373h135q197 0 197 -128q0 -50 -35.5 -79.5t-86.5 -29.5q-23 0 -140 -1q-85 -1 -140 0q-25 -84 -75 -272q-27 -115 -149 -115q-107 0 -107 101q0 47 75 287h-392q-83 -197 -121 -313 q-25 -76 -113 -76q-49 0 -88 32.5t-39 82.5q0 14 98 274h-110q-54 0 -89 44q-32 39 -32 86zM562 604h368l119 372h-347z" />
<glyph unicode="$" horiz-adv-x="1363" d="M93 111q0 138 152 138q39 0 133 -28.5t122 -28.5q26 0 64 5v423q-168 11 -287 71q-154 79 -154 218q0 159 138 292q123 119 303 176v158q0 112 105 112q101 0 101 -112v-127q108 -6 232 -48q159 -52 159 -119q0 -54 -39.5 -92.5t-94.5 -38.5q-46 0 -128 18 q-88 18 -129 20v-295q13 0 21 -1q212 -16 335 -119q138 -115 138 -319q0 -182 -154 -301q-127 -98 -340 -142v-240q0 -103 -110 -103q-48 0 -75 37q-21 30 -21 66v212q-38 -2 -73 -2q-193 0 -301 52q-97 46 -97 118zM406 959q0 -76 158 -96v244q-158 -60 -158 -148zM770 245 q210 73 210 181q0 163 -210 186v-367z" />
<glyph unicode="%" horiz-adv-x="1612" d="M103 1290q0 108 111 199q106 87 214 87q158 0 251 -100q88 -96 88 -243q0 -131 -112 -211q-99 -70 -230 -70q-152 0 -241 103q-81 93 -81 235zM340 1290q0 -55 21.5 -83t63.5 -28q44 0 74 16.5t30 37.5q0 58 -26 87t-78 29q-31 0 -58 -20t-27 -39zM346 83q0 50 145 340 l176 348q90 181 259 548q94 221 192 221q48 0 85 -33t37 -80q0 -31 -23 -67q-34 -53 -75 -143q-57 -127 -67 -148q-65 -127 -189 -386q-4 -10 -216 -434q-30 -71 -97 -210q-37 -68 -106 -68q-47 0 -84 32t-37 80zM864 295q0 149 89 248q96 108 255 108q142 0 251 -77 q124 -88 124 -229q0 -155 -105 -259.5t-268 -104.5q-146 0 -243 84q-103 89 -103 230zM1102 295q0 -43 32 -65.5t97 -22.5t89.5 30.5t24.5 107.5q0 31 -41 55t-96 24q-53 0 -79.5 -32t-26.5 -97z" />
<glyph unicode="&#x26;" horiz-adv-x="1286" d="M34 379q0 179 144 310q46 43 301 207q-56 153 -56 269q0 104 89 215q95 121 208 121q131 0 214 -83q80 -80 80 -195q0 -223 -229 -395q67 -136 148 -262l32 151q32 91 109 91q57 0 91 -52q30 -46 30 -101q0 -179 -94 -343q155 -228 155 -286q0 -50 -39.5 -83t-88.5 -33 q-64 0 -107 63q-28 48 -86 145q-193 -158 -423 -158q-193 0 -332 114q-146 120 -146 305zM281 379q0 -81 69 -133q67 -50 162 -50q161 0 286 123q-59 87 -210 372q-100 -63 -199 -127q-108 -84 -108 -185zM661 1166q0 -13 19 -74q20 -67 21 -73q31 31 61 81q34 56 34 88 q0 43 -11 58q-16 23 -65 18q-27 -3 -44 -37q-15 -30 -15 -61z" />
<glyph unicode="'" horiz-adv-x="852" d="M290 1001q-1 135 10 390q7 65 39 97.5t89 32.5q53 0 88.5 -32t35.5 -79q0 -13 -3 -38t-3 -37l-8 -334q-1 -47 -35.5 -78.5t-88.5 -31.5q-53 0 -89 32q-36 30 -35 78z" />
<glyph unicode="(" horiz-adv-x="720" d="M68 558q0 257 108 520q122 297 321 431q50 33 85 33q53 0 89.5 -38t36.5 -87q0 -48 -70 -120q-33 -33 -86 -85q-100 -109 -158 -315q-52 -184 -52 -360q0 -201 48 -370q63 -225 198 -317q120 -84 120 -150q0 -48 -37.5 -81.5t-85.5 -33.5q-40 0 -89 26q-428 230 -428 947 z" />
<glyph unicode=")" horiz-adv-x="720" d="M68 1417q0 49 37.5 87t89.5 38q35 0 84 -33q201 -134 322 -431q107 -263 107 -520q0 -717 -427 -947q-49 -26 -88 -26q-49 0 -86.5 33.5t-37.5 81.5q0 58 58 104q50 37 99 74q210 206 210 659q0 176 -52 360q-59 206 -158 315q-48 48 -96 95q-62 66 -62 110z" />
<glyph unicode="*" horiz-adv-x="1041" d="M7 1251q0 45 35 81.5t88 36.5q27 0 218 -67q-4 82 -4 116q0 48 35.5 80t88.5 32q52 0 88 -32t36 -80q0 -59 3 -108q175 26 247 26q53 0 87 -34t34 -80q0 -89 -103 -109q-69 -14 -163 -24q163 -165 163 -226q0 -47 -38.5 -80t-88.5 -33q-52 0 -107 54q-40 48 -81 96 q-38 44 -68 72q-199 -189 -269 -189q-51 0 -88 34.5t-37 81.5q0 42 49 89q42 33 85 68q27 22 43 36q-119 36 -176 59q-77 32 -77 100z" />
<glyph unicode="+" d="M160 612q0 75 62 98q33 13 126 13q54 0 125 4q0 9 -1 38t-1 47q0 192 130 192q51 0 88.5 -31t37.5 -79q0 -16 -3.5 -48t-3.5 -48l1 -67q22 -1 34 -1q19 0 58 1.5t59 1.5q196 0 196 -116q0 -46 -33 -79q-36 -36 -88 -36q-12 0 -34.5 3.5t-35.5 3.5q-25 0 -75.5 -1.5 t-77.5 -1.5q1 -33 0 -86q-1 -67 -1 -84q0 -49 -35.5 -81t-88.5 -32t-88.5 32t-35.5 81q0 -12 -2 165q-72 -4 -125 -4q-69 0 -121 25q-67 32 -67 90z" />
<glyph unicode="," horiz-adv-x="852" d="M207 -224q0 25 62 149q55 110 82 155q36 56 100 56q51 0 86.5 -32.5t35.5 -74.5q0 -19 -64 -148q-47 -94 -75 -148q-33 -63 -105 -63q-51 0 -86.5 32t-35.5 74z" />
<glyph unicode="-" d="M210 519q0 56 53 89q45 28 105 28q76 0 227.5 4t227.5 4q59 0 104 -24q58 -31 58 -91q0 -105 -146 -115q-132 -10 -471 -10q-60 0 -105 27q-53 33 -53 88z" />
<glyph unicode="." horiz-adv-x="852" d="M265 30q0 51 47 91.5t111 40.5q69 0 113 -38.5t44 -93.5q0 -51 -46 -90.5t-111 -39.5q-64 0 -111 40t-47 90z" />
<glyph unicode="/" horiz-adv-x="1006" d="M42 30q0 22 9 44q76 197 283 568t283 570q58 150 86 204q75 147 141 145q49 -2 86 -34q41 -34 41 -83q0 -30 -13 -64q-37 -80 -108 -249q-66 -170 -185 -394q-104 -190 -209 -381q-20 -38 -174 -367q-35 -75 -112 -75q-50 0 -87 31q-41 35 -41 85z" />
<glyph unicode="0" d="M20 762q0 275 139 482q167 249 457 249q275 0 427 -222q127 -187 127 -452q0 -428 -146 -642t-437 -214q-318 0 -461 274q-106 204 -106 525zM283 777q0 -235 44 -361q71 -205 260 -205q157 0 235.5 143.5t78.5 430.5q0 230 -71.5 344t-214.5 114q-155 0 -249 -154 q-83 -135 -83 -312z" />
<glyph unicode="1" d="M227 114q0 129 202 129q19 0 42 -1v851q-83 -57 -108 -57q-54 0 -94 38.5t-40 89.5q0 52 65 108l108 79l117 94q72 52 140 52q86 0 86 -104q0 -114 -9.5 -321.5t-9.5 -592.5v-232h63q56 0 94 -35.5t38 -88.5t-38 -88.5t-94 -35.5l-381 1q-181 0 -181 114z" />
<glyph unicode="2" d="M119 211q0 180 80 301q61 93 198 186q130 85 259 170q151 110 151 250q0 37 -60.5 73t-117.5 36q-102 0 -215.5 -91t-156.5 -91q-51 0 -89 25q-48 31 -48 86q0 58 48 101q116 102 203 149q124 69 258 69q166 0 299 -88q153 -100 153 -261q0 -163 -75 -277 q-58 -92 -185 -178q-120 -76 -240 -151q-183 -119 -196 -271q53 6 155 15q205 11 293 11q83 0 163 -36q100 -44 100 -113q0 -50 -35 -88q-38 -40 -93 -40q-24 0 -74.5 8t-72.5 8l-282 1q-37 0 -111 -9t-111 -9q-11 0 -31 4t-31 4q-86 0 -117 70q-19 44 -19 136z" />
<glyph unicode="3" d="M102 269q0 54 43 89q40 33 92 33q61 0 97 -48q62 -83 71 -91q60 -48 176 -48q91 0 159.5 55t68.5 132q0 239 -321 270q-141 14 -141 119q0 79 109 116q104 23 206 47q66 20 98.5 52.5t33.5 77.5q4 143 -224 143q-75 0 -164 -57t-122 -57q-55 0 -93 39.5t-38 89.5 q0 81 161 162q144 72 234 72q218 0 351 -94q145 -104 145 -296q0 -105 -41 -179.5t-123 -117.5q198 -111 198 -354q0 -196 -145 -332t-352 -136q-155 0 -279 62q-143 73 -193 208q-7 20 -7 43z" />
<glyph unicode="4" d="M8 522q0 53 53 118q45 50 90 101q154 221 471 657q75 100 195 100q57 0 98 -29q49 -35 49 -97l1 -722q126 -4 168 -26q47 -26 47 -102q1 -79 -73 -109q-52 -20 -142 -17q3 -138 -1 -299q-1 -53 -34.5 -87.5t-91.5 -34.5q-146 0 -139 192v229h-383q-308 0 -308 126z M412 650h287v431q-93 -147 -287 -431z" />
<glyph unicode="5" d="M83 219q0 52 41 88.5t94 36.5q54 0 92 -41q67 -70 73 -75q57 -40 157 -40q147 0 246 109q95 104 95 253q0 143 -47.5 214t-143.5 71q-169 0 -271 -109q-41 -46 -82 -91q-52 -49 -110 -49q-55 0 -93 37t-38 88q0 22 16 167q32 282 32 375q0 23 -17 63t-17 64q0 48 49 72 q39 20 91 20q19 0 58 -3.5t58 -3.5l462 -1q17 0 73.5 6t74.5 6q52 0 85.5 -33.5t33.5 -85.5q0 -143 -291 -143q-23 0 -58 1t-46 1h-286q-3 -58 -24 -194q126 62 300 62q234 0 354 -174q101 -143 101 -360q0 -261 -161 -432q-168 -178 -444 -178q-294 0 -433 209 q-24 36 -24 70z" />
<glyph unicode="6" d="M86 526q0 468 398 810q50 48 100 95q70 63 116 63q53 0 93 -36t42 -87q2 -48 -109 -155q-80 -73 -159 -145q-88 -86 -127 -169q52 21 96.5 30.5t81.5 9.5q240 0 371.5 -125.5t131.5 -348.5q0 -233 -139 -382q-147 -155 -391 -155q-271 0 -401 192q-104 153 -104 403z M350 526q0 -181 61.5 -272t184.5 -91q126 0 195 85q66 80 66 220q0 107 -66 161t-200 54q-71 0 -127 -23q-30 -13 -110 -61q-4 -39 -4 -73z" />
<glyph unicode="7" d="M29 1324q0 53 38.5 88.5t93.5 35.5q121 0 363.5 -7.5t363.5 -7.5h176q52 0 91 -20q49 -25 49 -74q0 -53 -58 -126q-48 -53 -97 -107q-122 -135 -225 -332q-33 -62 -172 -360q-18 -40 -82 -215q-48 -133 -98 -208q-38 -54 -106 -54q-53 0 -94.5 35.5t-41.5 87.5 q0 42 65 192l206 484q133 283 274 449q-108 1 -401 8q-73 0 -218 7q-127 11 -127 124z" />
<glyph unicode="8" d="M79 347q-5 283 186 406q-139 110 -139 277q0 189 144 314q137 119 331 121q229 2 344 -122q98 -107 98 -294q0 -104 -38 -168q-33 -56 -112 -102q117 -66 168 -152q58 -96 58 -253q0 -205 -160 -321q-145 -105 -370 -105q-213 0 -349 90q-158 106 -161 309zM341 357 q3 -93 90 -140q68 -37 158 -37q151 0 208 64q44 50 44 159q0 99 -78 161q-58 46 -179 83q-139 -60 -183 -107q-64 -64 -60 -183zM390 1031q1 -99 181 -145q101 28 139 51q69 41 69 112q0 108 -47 147q-38 33 -134 33q-210 0 -208 -198z" />
<glyph unicode="9" d="M51 946q0 272 180 411q152 118 395 118q193 0 344 -149q158 -156 159 -377q1 -240 -93 -465q-102 -245 -279 -370q-73 -52 -231 -124q-180 -81 -255 -81q-57 0 -94 40q-35 38 -35 87q0 77 92 118l158 50q140 54 220 123t146 193q-58 -20 -106.5 -30t-87.5 -10 q-192 0 -336 104q-177 126 -177 362zM313 962q0 -115 83 -180q76 -57 196 -57q48 0 114 29.5t149 89.5q10 67 10 105q-1 101 -91 200q-90 96 -176 96q-142 0 -213 -70.5t-72 -212.5z" />
<glyph unicode=":" horiz-adv-x="852" d="M290 960q0 54 41 89t97 35q144 0 144 -190q0 -55 -39 -90.5t-97 -35.5q-60 0 -98.5 35.5t-38.5 90.5q0 10 -4.5 32t-4.5 34zM302 343q0 53 44 90q41 34 97 34q145 0 145 -222q0 -55 -39 -91t-98 -36q-149 0 -149 225z" />
<glyph unicode=";" horiz-adv-x="852" d="M205 -64q0 68 90 193q96 135 173 135q49 0 87.5 -34.5t38.5 -82.5q0 -46 -76 -131q-28 -31 -38 -44q-25 -32 -27 -50q-14 -108 -123 -108q-57 0 -91 35t-34 87zM317 952q0 55 42 92q39 35 96 35q144 0 144 -193q0 -56 -39 -93t-97 -37q-59 0 -98 37t-39 93 q0 12 -4.5 33.5t-4.5 32.5z" />
<glyph unicode="&#x3c;" d="M230 583q0 66 86.5 104t192.5 140q144 140 174 162q39 30 82 30q51 0 88 -35t37 -81q0 -45 -40 -81q-82 -80 -253 -231q72 -70 224 -202q48 -39 48 -87q0 -46 -37 -81t-88 -35q-54 0 -134 68l-112 108q-89 85 -171 114q-97 34 -97 107z" />
<glyph unicode="=" d="M181 844q0 116 191 116q11 0 34 -1h30l448 -1q54 0 89 -31.5t35 -79.5t-35 -80t-89 -32h-449q-22 0 -65.5 -1.5t-65.5 -1.5q-53 0 -88 32.5t-35 79.5zM192 376q0 104 118 112q101 6 181 6q63 0 189.5 -2t190.5 -2q53 0 88.5 -32t35.5 -80t-35.5 -79.5t-88.5 -31.5 q-64 0 -190.5 2.5t-189.5 2.5q-29 0 -86 -3.5t-86 -3.5q-55 0 -91 30.5t-36 80.5z" />
<glyph unicode="&#x3e;" d="M281 296q0 52 52 90q112 76 333 232q-110 80 -212 177q-129 121 -129 170q0 47 39 81t89 34q52 0 93 -42q215 -221 385 -303q78 -37 78 -99q0 -47 -49 -89q-231 -199 -484 -347q-35 -21 -71 -21q-52 0 -88 35.5t-36 81.5z" />
<glyph unicode="?" horiz-adv-x="1112" d="M81 1233q0 96 168 175q142 68 236 68q208 0 376.5 -153.5t168.5 -351.5q0 -197 -197 -350q-6 -5 -158 -111q-97 -67 -148 -124q-46 -51 -102 -51q-54 0 -95.5 40t-41.5 92q0 76 124 171q114 81 228 163q124 94 124 170q0 89 -90.5 167t-188.5 78q-52 0 -142.5 -59 t-127.5 -59q-57 0 -95.5 42t-38.5 93zM224 60q0 66 38 121q46 69 124 69q65 0 102 -49q28 -41 28 -95q0 -59 -31 -110q-41 -65 -113 -65q-54 0 -99 34q-49 39 -49 95z" />
<glyph unicode="@" horiz-adv-x="1830" d="M67 684q0 365 211 614q229 267 606 267q338 0 580 -195q257 -207 257 -528q0 -220 -116 -342q-121 -128 -351 -128q-66 0 -133 32.5t-134 95.5q-40 -43 -105 -77q-69 -36 -121 -36q-121 0 -227.5 93.5t-106.5 209.5q0 185 149 334q153 153 347 153q115 0 115 -97 q0 -72 -89 -110q-159 -69 -164 -71q-88 -62 -88 -189q0 -13 16 -34q20 -26 47 -27q68 -2 117 65l75 125q47 67 108 67q100 0 100 -116q0 -18 -6.5 -55t-6.5 -56q0 -36 39 -43q6 -1 68 -1q112 0 154 48q40 45 40 159q0 207 -174 339q-162 122 -390 122q-259 0 -407 -187 q-135 -170 -135 -432q0 -237 157 -399q164 -168 422 -168q93 0 330 86q51 18 68 18q57 0 96 -42t39 -95q0 -96 -219 -164q-176 -54 -312 -54q-356 0 -602 230q-254 235 -254 588z" />
<glyph unicode="A" horiz-adv-x="1438" d="M87 106q0 49 141 332q-14 30 -12 55q4 47 93 72q136 237 303 490q240 364 296 364q106 0 141 -128q19 -103 61 -308q58 -276 143 -633q7 -26 49 -126q34 -83 34 -124q0 -56 -42 -94q-39 -36 -89 -35h-5q-76 3 -153 179q-51 113 -87 261q-71 -11 -232 -21 q-152 -11 -233 -25q-44 -106 -153 -318q-42 -69 -117 -69q-53 0 -95.5 36t-42.5 92zM636 606q43 9 134 15q107 7 135 11q-23 124 -63 324q-75 -128 -206 -350z" />
<glyph unicode="B" horiz-adv-x="1239" d="M130 1253q-1 22 -1 42q0 47 5 83q14 90 168 109q73 21 242 21q182 0 348 -117q195 -136 195 -341q0 -110 -41 -186q-31 -61 -110 -132q93 -45 165 -136q82 -102 82 -202q0 -128 -139 -242q-94 -76 -195 -115q-224 -83 -566 -83q-57 0 -103 48t-46 103v1017q-2 66 -4 131z M396 217q165 9 358 63q167 47 167 103q0 74 -109 133q-82 46 -155 53q-88 0 -261 7v-359zM396 841q64 -8 104 -8q15 0 27 1q294 23 294 216q0 68 -87 132q-89 66 -190 66q-124 0 -148 -2v-203v-202z" />
<glyph unicode="C" horiz-adv-x="1216" d="M48 492q0 321 281 656q239 284 489 284q42 0 76 -2.5t60 -8.5q42 41 102 41q98 0 121 -112q16 -81 16 -188q0 -48 -28 -88q-36 -52 -105 -52q-87 0 -128 92q-19 43 -38 51q-15 7 -76 7q-121 0 -279 -188q-222 -263 -222 -492q0 -105 70 -180t168 -75q95 0 193 50 q34 18 146 94q75 50 113 50q58 0 98 -42q37 -40 37 -90q0 -57 -50 -99q-264 -223 -537 -223q-216 0 -365 157q-142 152 -142 358z" />
<glyph unicode="D" horiz-adv-x="1418" d="M137 121q0 96 9.5 288t9.5 288q0 107 -4.5 320t-4.5 319q0 53 51 105.5t108 52.5q32 0 160 -60q148 -71 176 -79q282 -92 480 -283q237 -227 237 -503q0 -166 -81 -316q-82 -152 -224 -244q-159 -104 -448 -104q-70 0 -162 20q-110 25 -173 65q-57 1 -95.5 39t-38.5 92z M411 211q37 -24 85.5 -36t108.5 -12q207 0 297 58q86 55 136.5 149t50.5 195q0 239 -279 412q-93 59 -399 185v-951z" />
<glyph unicode="E" horiz-adv-x="1227" d="M90 393q0 128 19 386t19 385q0 34 -10 100t-10 99q0 146 135 146q42 0 78 -24q111 28 211.5 42t189.5 14q242 0 387 -56q88 -33 88 -122q0 -50 -34 -88q-39 -44 -98 -44q-20 0 -41 5q-155 43 -302 43q-72 0 -154.5 -11.5t-175.5 -34.5q0 -128 -9 -380q54 4 375 36 q184 18 233 18q56 0 96.5 -36t40.5 -95q0 -115 -122 -130q-77 -6 -229 -19q-137 -15 -411 -38q-7 -121 -7 -196q0 -189 22 -214q11 -13 121 -13q60 0 180 3t179 3q19 0 56.5 5.5t55.5 5.5q56 0 95 -31q46 -36 46 -100q0 -108 -113 -129q-96 -18 -398 -18q-313 0 -408 84 q-105 94 -105 404z" />
<glyph unicode="F" horiz-adv-x="1193" d="M89 29v1100q0 37 1.5 113t1.5 114q0 56 38 93.5t96 37.5q36 0 64 -14q111 19 204.5 28t167.5 9q110 0 276 -45q208 -57 208 -132q0 -54 -39 -93.5t-93 -39.5q-22 0 -49 9q-124 40 -303 40q-58 0 -134.5 -7.5t-169.5 -23.5q1 -92 1 -171t-1 -146q146 36 242 36 q179 0 311 -16q124 -16 124 -131q0 -56 -39.5 -93t-95.5 -37q-50 0 -150 7.5t-150 7.5q-70 0 -242 -44v-602q0 -56 -43.5 -93.5t-100.5 -37.5q-56 0 -90.5 37t-34.5 94z" />
<glyph unicode="G" horiz-adv-x="1336" d="M37 473q0 246 121 504.5t311 418.5q134 112 287 112q93 0 253 -67q190 -80 190 -170q0 -52 -39.5 -92.5t-96.5 -40.5q-29 0 -127.5 54t-179.5 54q-87 0 -234 -186q-214 -271 -214 -587q0 -160 47 -218q50 -60 193 -60q147 0 258 83q118 89 175 258q-223 -18 -388 -92 q-29 -13 -59 -13q-60 0 -99 44q-36 40 -36 89q0 147 348 206q196 33 457 33q57 0 96 -37.5t39 -92.5q0 -70 -57 -109q-66 -286 -263 -457q-201 -173 -471 -173q-255 0 -383 135t-128 404z" />
<glyph unicode="H" horiz-adv-x="1510" d="M108 46q0 97 16.5 290t16.5 290q0 123 6 370t6 370q0 53 37.5 89.5t92.5 36.5q56 0 93.5 -36.5t37.5 -89.5q0 -73 -5 -219.5t-6 -219.5q0 -24 -7 -92q-4 -52 -4 -85v-12l368 69q216 39 373 45q4 64 12 345q2 74 45 170q54 118 122 118q51 0 91 -33q42 -37 42 -92 q0 -14 -4 -28q-19 -71 -19 -122q0 -27 -5.5 -83.5t-5.5 -82.5q0 -92 -9.5 -271.5t-9.5 -270.5q0 -70 10.5 -209t10.5 -209q0 -53 -37.5 -89.5t-92.5 -36.5q-57 0 -98.5 36t-41.5 88q0 70 -6 210t-6 210q0 55 2 97q-151 -7 -373 -47l-368 -68q-2 -65 -14 -218 q-9 -134 -9 -220q0 -53 -37.5 -89.5t-93.5 -36.5t-93 36.5t-37 89.5z" />
<glyph unicode="I" horiz-adv-x="1074" d="M34 1297q0 57 38 92q36 33 87 38q85 7 294 7q188 0 485 -40q118 -16 118 -133q0 -61 -48 -97q-39 -29 -89 -29t-274 27q-13 -177 -13 -470l-1 -431q127 3 260 3q57 0 95 -38.5t38 -92.5q0 -53 -38 -91t-95 -38q-54 0 -161.5 -2.5t-161.5 -2.5q-63 0 -189.5 -17 t-190.5 -17q-57 0 -95 38t-38 92t38 92.5t95 38.5q65 0 172 14q-2 113 -2 434q0 261 19 498l-208 -6q-58 0 -96.5 37.5t-38.5 93.5z" />
<glyph unicode="J" horiz-adv-x="1307" d="M52 330q0 150 135 150q136 0 136 -148q0 -56 97 -121t183 -65q34 0 50 128q4 30 21 298q14 219 14 545q0 14 -3 63l-22 -1q-17 -1 -38 -1q-32 0 -75 2q-85 4 -113 4q-57 0 -96 34q-42 38 -42 97q0 131 171 131q33 0 97.5 -2.5t95.5 -2.5q61 0 181.5 6.5t180.5 6.5 q258 0 258 -143q0 -50 -35 -89q-39 -43 -99 -43q-17 0 -54.5 3.5t-60.5 3.5h-75v3q-1 0 -1 -72q0 -687 -97 -1001q-71 -231 -258 -231q-179 0 -353 123q-198 137 -198 322z" />
<glyph unicode="K" d="M104 59q0 213 13.5 640t13.5 640q0 54 38 92.5t96 38.5t95.5 -38.5t37.5 -92.5q0 -86 -8 -233q-11 -171 -13 -233q67 63 499 533q44 48 101 48q55 0 96 -38t41 -93q0 -60 -229 -309q-169 -184 -356 -362l210 -198q123 -113 221 -186q49 -36 106 -54q102 -33 102 -126 q0 -41 -26 -79q-35 -52 -98 -52q-138 0 -357 179q-65 54 -308 289l-1 -404q0 -42 -24 -78q-33 -49 -98 -49q-76 0 -119 62q-33 48 -33 103z" />
<glyph unicode="L" horiz-adv-x="1082" d="M59 117v-1q1 0 19 305q25 417 25 928q0 55 38 93t95 38q58 0 96.5 -38t38.5 -93q0 -512 -26 -943q-9 -77 -19 -235q228 4 584 111q22 7 42 7q61 0 98 -44q34 -40 34 -89q0 -82 -84 -120q-113 -49 -350 -89q-217 -36 -356 -36q-235 0 -235 206z" />
<glyph unicode="M" horiz-adv-x="1735" d="M69 73q0 155 66 379q99 335 107 372q28 148 57 295q43 204 93.5 271.5t126.5 67.5q88 0 129 -88q38 -84 83 -342q42 -250 125 -539q110 285 204 626l54 220q51 138 160 138q105 0 155 -160q22 -64 46 -240q55 -409 140 -701q85 -296 85 -322q0 -57 -45 -95 q-42 -35 -95 -35q-105 0 -156 150l-53 232q-46 173 -100 497q-43 -129 -143 -404l-58 -177q-35 -105 -74 -172q-51 -89 -142 -89q-90 0 -138 106l-54 179q-75 246 -134 516q-43 -155 -121 -469q-18 -109 -36 -216q-39 -136 -145 -136q-66 0 -104 45q-33 38 -33 91z" />
<glyph unicode="N" horiz-adv-x="1598" d="M80 1341q0 58 49.5 103t112.5 45q71 0 157 -123q436 -622 861 -1015v146q0 474 -9 639q-2 28 -13 103q-9 68 -9 106q0 132 140 132q156 0 156 -482q0 -11 -1 -152q-6 -488 -6 -607q0 -48 -17 -152q-19 -123 -140 -123q-67 0 -151 75q-370 334 -835 935q-5 -250 -5 -307 q0 -76 3 -228.5t3 -228.5q0 -283 -138 -283q-70 0 -112 43q-38 39 -38 93q0 39 6.5 116.5t6.5 116.5q0 56 3.5 169.5t3.5 170.5q0 60 -2.5 182t-2.5 182q0 58 -11.5 172.5t-11.5 171.5z" />
<glyph unicode="O" horiz-adv-x="1569" d="M58 557q0 326 204 595q230 302 578 302q335 0 502 -153.5t167 -461.5q0 -326 -188 -591q-217 -307 -566 -307q-285 0 -484 164q-213 174 -213 452zM330 557q0 -160 124 -259q119 -96 301 -96q211 0 352 207q129 189 129 430q0 202 -90 280q-86 75 -306 75 q-214 0 -367 -207q-143 -194 -143 -430z" />
<glyph unicode="P" horiz-adv-x="1047" d="M58 101v268q0 148 19 440q18 297 19 443q1 239 129 239h11q33 9 90.5 13t140.5 4q188 0 353 -122q183 -136 183 -332q0 -246 -195 -391q-172 -127 -412 -127q-16 0 -80 6q-6 -134 -6 -441q0 -51 -35.5 -87.5t-90.5 -36.5q-54 0 -90 36.5t-36 87.5zM331 790q49 -8 65 -8 q150 0 249 71q106 76 106 201q0 82 -99 145q-95 61 -208 61h-53.5t-40.5 -2q0 -46 -1 -136q-1 -106 -18 -332z" />
<glyph unicode="Q" horiz-adv-x="1723" d="M36 636q0 345 267 585q261 233 617 233q381 0 576 -274q164 -232 164 -593q0 -301 -289 -517q57 -52 174 -154l109 -87q64 -59 64 -115q0 -53 -39 -92q-40 -42 -99 -42q-70 0 -465 354q-160 -58 -313 -58q-306 0 -538 234q-228 232 -228 526zM309 636q0 -187 152 -341 t341 -154q25 0 53 3q-141 135 -141 220q0 57 44 96q42 35 95 35q66 0 113 -58q84 -106 188 -190q231 141 231 340q0 265 -109 424q-123 178 -356 178q-249 0 -428 -159q-183 -161 -183 -394z" />
<glyph unicode="R" horiz-adv-x="1258" d="M88 97q0 72 2 215.5t2 215.5l2 775q0 62 38 113q44 60 121 60q7 0 14 -1q233 -18 239 -19q134 -16 228 -64q410 -206 410 -512q0 -125 -86 -221.5t-257 -163.5q254 -142 383 -290q33 -38 33 -85q0 -54 -40 -93t-96 -39q-52 0 -95 41q-291 272 -639 378q10 -279 10 -310 q0 -55 -38.5 -93t-95.5 -38q-58 0 -96.5 38t-38.5 93zM353 694q24 -1 43 -1q235 0 348 59q49 25 90 66t41 62q0 108 -137 208q-129 94 -272 108q-8 1 -113 8v-510z" />
<glyph unicode="S" horiz-adv-x="1363" d="M46 258q0 61 36.5 100.5t100.5 39.5q87 0 127 -88q55 -118 248 -118q165 0 319 72q161 74 161 162q0 121 -100 160q-71 27 -285 32q-166 4 -298 63q-175 78 -175 225q0 188 200 346q197 156 434 156q94 0 232 -43q172 -54 172 -124q0 -50 -34 -88q-39 -43 -99 -43 q-45 0 -135 19t-136 19q-124 -1 -235 -59q-115 -60 -115 -130q0 -36 35 -59.5t105 -33.5q123 -7 245 -14q213 -16 337 -120q136 -115 136 -318q0 -248 -282 -376q-215 -97 -492 -97q-244 0 -384 109q-118 90 -118 208z" />
<glyph unicode="T" horiz-adv-x="1368" d="M10 1324q0 49 34 88q36 42 94 42h12q33 -2 152 -16q95 -10 154 -10t175.5 1.5t174.5 1.5q73 0 219 -10t219 -10q58 0 97 -37.5t39 -91.5q0 -55 -39 -93t-97 -38q-75 0 -233 11q-139 9 -218 9h-15q3 -109 26 -390q20 -247 20 -391q0 -33 6.5 -97.5t6.5 -96.5 q0 -72 -31 -130q-39 -74 -112 -74q-53 0 -93 34q-45 37 -45 94q0 13 4.5 40.5t4.5 42.5q0 44 -6 133t-6 134q0 129 -20 349q-23 252 -27 348h-50q-214 0 -340 31q-106 26 -106 126z" />
<glyph unicode="U" horiz-adv-x="1448" d="M75 715q0 47 4.5 140t4.5 141q0 37 2 111.5t2 111.5q0 77 28 145q38 90 105 90q53 0 93 -34q44 -37 44 -94q0 -55 -1.5 -166t-1.5 -166q0 -46 -4.5 -139.5t-4.5 -139.5q0 -149 34 -276q40 -153 118 -213q41 -32 192 -34h5q250 0 337 432q46 226 46 634q0 53 32 103 q43 67 123 67q65 0 98 -48q25 -36 25 -79q0 -379 -36 -592q-54 -327 -212 -543q-70 -95 -169 -158q-121 -77 -249 -77q-245 0 -364 94q-251 199 -251 690z" />
<glyph unicode="V" horiz-adv-x="1326" d="M69 1332q0 57 42 95q41 34 94 34q93 0 129 -96l38 -166q32 -104 92 -311q75 -275 145 -485q145 365 224 581q43 114 84 229q56 137 122 211q43 49 103 49q55 0 96.5 -38t41.5 -93q0 -38 -26 -76q-52 -75 -95 -180q-2 -4 -71 -190q-87 -222 -258 -666q-44 -116 -108 -232 q-41 -75 -120 -75q-100 0 -139 94q-117 280 -260 806q-40 129 -80 259q-54 180 -54 250z" />
<glyph unicode="W" horiz-adv-x="2043" d="M48 1343q0 58 44 91q40 31 95 31q73 0 116 -61q24 -34 55 -122q94 -271 212 -790q77 188 157 442q64 207 104 295q96 209 196 209q94 0 137 -103q22 -49 42 -177q6 -40 25 -193q20 -165 121 -601q101 238 273 686q11 27 50 177q28 107 70 170q46 67 123 67q59 0 97.5 -36 t38.5 -93q0 -20 -34 -103q-16 -40 -38 -97q-17 -56 -53 -165q-55 -142 -174 -411q-122 -275 -175 -410q-39 -101 -74 -161q-45 -80 -137 -80q-55 0 -99 30q-52 34 -56 91q-44 110 -55 180q-42 206 -117 618q-63 -193 -135 -347q-107 -230 -141 -362q9 -21 9 -45 q0 -60 -53 -97q-46 -32 -102 -32q-70 0 -116 36q-50 39 -52 107l-30 113q-31 149 -103 447q-64 228 -212 648q-9 24 -9 48z" />
<glyph unicode="X" horiz-adv-x="1422" d="M11 65q0 46 33 85q59 61 175 185q127 136 339 374q-97 123 -205 246q-8 10 -109 140q-66 86 -121.5 129.5t-55.5 103.5q0 51 39 91.5t98 40.5q51 0 136 -73q61 -54 101.5 -108t120.5 -156q92 -104 177 -212q121 159 241 319q186 230 255 230q55 0 96.5 -39t41.5 -92 q0 -45 -36 -86q-126 -145 -196 -242q-73 -106 -234 -310q101 -140 202 -281q119 -164 214 -272q35 -40 35 -86q0 -54 -40.5 -93.5t-96.5 -39.5q-95 0 -249 219q-41 64 -127 188q-41 56 -122 166q-118 -133 -300 -328q-57 -65 -177 -190q-42 -40 -97 -40q-56 0 -97 39t-41 92 z" />
<glyph unicode="Y" horiz-adv-x="1248" d="M-11 1331q0 55 44 94q40 35 94 35q63 0 115 -64l72 -115q7 -12 165 -281q100 -172 177 -271q73 147 210 444q29 66 86 201q37 86 125 86q53 0 93 -34q44 -38 44 -94q0 -33 -55 -147q-49 -101 -197 -436q-123 -281 -209 -440q-150 -276 -161 -293q-56 -83 -130 -83 q-53 0 -93 34q-45 39 -45 95q0 47 201 396q-74 106 -212 323q-104 160 -304 481q-20 33 -20 69z" />
<glyph unicode="Z" horiz-adv-x="1363" d="M12 80q0 69 60 164q19 30 108 145q158 210 316 419q188 242 353 392q-150 -11 -229 -11h-388q-10 0 -30.5 -1t-30.5 -1q-57 0 -96 32q-44 37 -44 98q0 132 195 132q66 0 197.5 -8.5t197.5 -8.5q74 0 221.5 4t221.5 4q286 0 286 -125q0 -79 -127 -168q-53 -32 -130 -83 q-162 -120 -384 -413q-169 -229 -339 -458l-4 -5q70 2 338 14q210 9 335 9q137 0 186 -10q115 -25 119 -111v-7q0 -58 -44 -93q-40 -31 -97 -31q-28 0 -83.5 3t-83.5 3q-146 0 -438.5 -7t-438.5 -7q-62 0 -102 32q-45 34 -45 97z" />
<glyph unicode="[" horiz-adv-x="740" d="M130 1335q0 53 41 88.5t95 35.5q33 0 99 -2.5t99 -2.5q18 0 54 2.5t54 2.5q57 0 92 -35t35 -92q0 -131 -232 -131q-12 0 -79 2v-1347l34 1q31 1 84 -2q60 -3 84 -3q53 0 87.5 -36.5t34.5 -89.5t-34.5 -89.5t-87.5 -36.5q-27 0 -83.5 2t-84.5 2q-22 0 -64.5 -2t-64.5 -2 q-162 0 -162 145q0 172 2 517t2 517q0 93 -2.5 278t-2.5 278z" />
<glyph unicode="\" horiz-adv-x="1080" d="M132 1338q0 51 39 88t92 37q63 0 105 -59q119 -169 242 -450q98 -238 195 -475q107 -256 192 -431q16 -32 16 -59q0 -50 -38.5 -87t-91.5 -37q-71 0 -110 64q-37 59 -114 234q-91 229 -280 682q-61 138 -227 426q-20 35 -20 67z" />
<glyph unicode="]" horiz-adv-x="740" d="M60 -274q0 -53 34.5 -89.5t86.5 -36.5q28 0 84.5 2t83.5 2q23 0 65.5 -2t64.5 -2q162 0 162 145q0 172 -2.5 517t-2.5 517q0 93 3 278t3 278q0 53 -41 88.5t-95 35.5q-33 0 -99 -2.5t-99 -2.5q-18 0 -54 2.5t-54 2.5q-57 0 -92 -35t-35 -92q0 -131 232 -131q12 0 79 2 v-1347l-35 1q-30 1 -83 -2q-61 -3 -85 -3q-52 0 -86.5 -36.5t-34.5 -89.5z" />
<glyph unicode="^" d="M166 1187q0 44 40 77q51 44 290 279q39 37 89 37q63 0 142 -57q28 -21 117 -102q99 -91 152 -143q36 -35 36 -73q0 -44 -38 -77t-89 -33q-47 0 -87 34q-68 65 -209 192q-233 -244 -318 -244q-51 0 -88 33t-37 77z" />
<glyph unicode="_" horiz-adv-x="1232" d="M-72 -153h1380v-178h-1380v178z" />
<glyph unicode="`" horiz-adv-x="1093" d="M105 1485q0 42 36 76t87 34q79 0 223 -149q141 -145 141 -210q0 -44 -38.5 -74.5t-88.5 -30.5q-62 0 -101 48l-92 118q-52 62 -115 104q-52 34 -52 84z" />
<glyph unicode="a" horiz-adv-x="1092" d="M54 442q0 231 171 395.5t409 164.5q91 0 211 -52q145 -62 145 -145q0 -34 -22 -60q-10 -38 -15 -96.5t-5 -135.5q0 -184 25 -264q3 -9 45 -100q37 -83 37 -94q0 -51 -39 -84.5t-90 -33.5q-44 0 -140 96q-88 -43 -155 -64.5t-115 -21.5q-231 0 -346.5 124t-115.5 371z M320 434q0 -129 46 -193.5t138 -64.5q60 0 113 19.5t100 57.5q-29 229 -29 342q0 31 4.5 71t13.5 89q-20 9 -34.5 13.5t-25.5 4.5q-130 0 -228 -102.5t-98 -236.5z" />
<glyph unicode="b" horiz-adv-x="1166" d="M86 92q0 23 3 70.5t3 70.5v1088q0 69 31 123q38 68 109 68q103 0 103 -111q0 -13 -3.5 -40.5t-3.5 -39.5v-368q71 40 136.5 59.5t125.5 19.5q226 0 365 -164q130 -154 130 -373q0 -222 -151 -377q-154 -158 -380 -158q-134 0 -255 47q-36 -36 -87 -36q-52 0 -89 34.5 t-37 86.5zM328 263q132 -57 226 -57q122 0 200.5 82.5t78.5 206.5q0 125 -64 207q-67 84 -179 84q-50 0 -115 -28.5t-147 -86.5v-148v-260z" />
<glyph unicode="c" horiz-adv-x="1009" d="M35 394q0 191 135 394q154 232 357 232q100 0 233 -53q163 -67 163 -153q0 -47 -33 -83q-35 -40 -89 -40q-42 0 -100 44.5t-174 44.5q-74 0 -160 -144q-83 -141 -83 -242t73 -159q69 -55 183 -55q64 0 157 49t118 49q52 0 89 -37t37 -85q0 -75 -163 -150 q-146 -66 -238 -66q-212 0 -355 120q-150 126 -150 334z" />
<glyph unicode="d" horiz-adv-x="1154" d="M47 450q0 258 146 417t381 159q72 0 128.5 -15t98.5 -46q12 327 29 452q17 113 125 113q57 0 91.5 -36.5t34.5 -89.5q0 -139 -21.5 -414.5t-21.5 -414.5q0 -340 22 -455q3 -15 3 -28q0 -53 -38.5 -87t-89.5 -34q-71 0 -106 64q-65 -40 -135 -59.5t-145 -19.5 q-215 0 -357 137q-145 140 -145 357zM294 454q0 -104 76.5 -177.5t178.5 -73.5q74 0 112 17q26 11 89 61q16 14 31 30q0 23 -0.5 111t0.5 240q-31 61 -82 90.5t-121 29.5q-142 0 -213 -82t-71 -246z" />
<glyph unicode="e" horiz-adv-x="1099" d="M45 406q0 243 128 411q142 186 383 186q167 0 277 -54q145 -71 145 -220q0 -106 -118 -188q-54 -37 -216 -109l-323 -143q46 -50 111 -75t150 -25q128 0 218 53q79 47 127 47q100 0 100 -97q0 -109 -160 -179q-135 -57 -285 -57q-230 0 -376 109q-161 121 -161 341z M301 533q109 47 216 93q130 58 207 108q-64 37 -168 37q-89 0 -152.5 -59.5t-102.5 -178.5z" />
<glyph unicode="f" horiz-adv-x="999" d="M34 844q0 89 94 117q42 12 168 16q1 18 12 109q27 214 116 318q112 131 342 131q176 0 176 -126q0 -125 -163 -125q-117 0 -169 -81q-40 -61 -53 -189l-3 -28q129 11 184 11q180 0 180 -122q0 -121 -174 -121h-17h-20q-60 0 -164 -9q-2 -77 -2 -184v-75q4 -227 4 -258 q0 -176 -22 -279t-127 -103q-53 0 -93 35t-40 87q0 13 2 24q23 138 23 259v480q-17 -1 -63 -8q-37 -5 -56 -5q-59 0 -97 34t-38 92z" />
<glyph unicode="g" horiz-adv-x="1043" d="M17 -394q0 53 33.5 85.5t88.5 32.5q43 0 124 -16t143 -16q143 0 211 87q66 86 77 272q-49 -50 -110.5 -75t-134.5 -25q-191 0 -310.5 124.5t-119.5 318.5q0 261 160 422q165 167 446 167q90 0 155.5 -22t105.5 -67q122 -15 122 -144q0 -65 -20 -178q-40 -225 -48 -476 q-10 -310 -104 -450q-126 -187 -445 -187q-374 0 -374 147zM282 406q0 -114 43.5 -171.5t129.5 -57.5q79 0 158 91q75 86 86 171q18 92 42 287q-33 19 -64.5 28.5t-61.5 9.5q-162 0 -252 -106q-81 -97 -81 -252z" />
<glyph unicode="h" horiz-adv-x="1135" d="M101 102q0 18 10 51q7 21 12 259q-2 80 -2 205q0 175 4 437l2 32q5 113 5 151q0 30 -9 88t-9 88q0 55 39.5 90t95.5 35q95 0 127 -102q19 -57 19 -176q0 -96 -6 -195q-6 -94 -6 -187q70 70 150 104t172 34q164 0 236 -92q54 -70 65 -213q5 -118 11 -237q15 -154 19 -188 q13 -106 32 -186q5 -20 5 -36q0 -53 -40.5 -88.5t-95.5 -35.5q-97 0 -126 96q-23 78 -42 219q-17 136 -17 223q0 24 2 72.5t2 72.5q0 71 -1 83q-9 52 -50 52q-107 0 -193 -98q-44 -48 -121 -186q0 -347 -34 -418q-37 -79 -119 -79q-54 0 -95.5 36t-41.5 89z" />
<glyph unicode="i" horiz-adv-x="551" d="M133 450q0 86 10 214.5t10 213.5q0 56 37.5 92t94.5 36q58 0 95.5 -36t37.5 -92q0 -85 -10 -213.5t-10 -214.5q0 -54 3.5 -175t3.5 -176q0 -56 -37.5 -92t-94.5 -36q-58 0 -95.5 36t-37.5 92q0 55 -3.5 176t-3.5 175zM165 1296q0 60 45 101t107 41q61 0 106 -41t45 -101 t-45 -101t-106 -41q-62 0 -107 41t-45 101z" />
<glyph unicode="j" horiz-adv-x="792" d="M-56 -185q0 53 43 91q41 35 95 35q61 0 108 -66q35 -61 70 -124q39 -66 80 -66q50 0 62 135q0 101 -32.5 532t-32.5 512q0 58 34 104q39 52 101 52q44 0 89 -30q48 -33 50 -75q11 -183 31 -533q26 -466 26 -571q0 -139 -87 -255q-97 -129 -241 -129q-232 0 -381 328 q-15 32 -15 60zM298 1292q0 61 44.5 102.5t105.5 41.5q62 0 107 -41.5t45 -102.5q0 -60 -45 -101.5t-107 -41.5q-61 0 -105.5 41.5t-44.5 101.5z" />
<glyph unicode="k" horiz-adv-x="1061" d="M90 128q0 76 11 227t11 227q0 139 4.5 318t4.5 316q0 42 -4.5 98t-4.5 97q0 56 37.5 92t95.5 36q57 0 94.5 -36t37.5 -92q0 -42 5 -99.5t5 -99.5q0 -115 -6 -271q-5 -129 -5 -233v-34q131 101 398 367q42 42 96 42t95 -39.5t41 -91.5q0 -44 -37 -85q-114 -127 -270 -265 l200 -257q145 -193 145 -258q0 -52 -42.5 -89t-96.5 -37q-76 0 -115 73q-47 87 -141 206q-146 185 -155 197q-76 -57 -126 -87q-10 -133 -10 -255q0 -56 -37.5 -92.5t-94.5 -36.5q-136 0 -136 162z" />
<glyph unicode="l" horiz-adv-x="538" d="M129 89v1328q0 56 40 91q38 33 95 33t93.5 -34t36.5 -90v-1276q0 -182 -133 -182q-57 0 -94.5 36.5t-37.5 93.5z" />
<glyph unicode="m" horiz-adv-x="1527" d="M81 825q0 85 30 154q38 87 106 87q54 0 96 -42t42 -92v3q-1 0 -8 -85q145 168 274 168q148 0 217 -113q59 52 130 78t153 26q188 0 256 -187q13 -39 41 -260q27 -156 69 -519v-10q1 -49 -37 -81q-42 -36 -97 -35q-111 0 -130 110q-17 99 -35 279q-20 198 -32 281 q-26 171 -66 171q-22 0 -101 -44t-115 -76q0 -109 26 -314q26 -211 26 -315q0 -55 -37 -91.5t-95 -36.5t-95.5 36.5t-37.5 91.5q0 109 -23.5 321.5t-23.5 322.5q0 61 -10 98q-112 -65 -224 -214q-5 -7 -16 -21q-4 -193 -4 -304q0 -27 -2 -72.5t-2 -67.5q0 -52 -42 -82 q-38 -27 -95 -27q-82 0 -111 71q-20 48 -20 152v357q0 48 -3.5 141t-3.5 141z" />
<glyph unicode="n" horiz-adv-x="1029" d="M65 241q0 92 13.5 256t13.5 257q0 28 -3.5 85.5t-3.5 84.5q0 54 39 89t96 35q126 0 134 -150l1 -11q140 141 296 141q181 0 250 -152q47 -101 47 -304v-68q-1 -44 -1 -62q0 -75 20.5 -193t20.5 -192q0 -54 -38.5 -89.5t-95.5 -35.5q-118 0 -131 116q-14 99 -27 199 q-14 105 -14 198q0 25 3 85.5t3 85.5q0 7 2 34.5t2 44.5q0 80 -41 80q-88 0 -173 -103.5t-133 -261.5q-2 -32 -9 -85q-6 -43 -6 -84q0 -27 6.5 -81t6.5 -81q0 -55 -38 -91t-96 -36q-57 0 -94.5 36t-37.5 91q0 27 -6 81t-6 81z" />
<glyph unicode="o" horiz-adv-x="1033" d="M41 421v20q0 201 116 359q146 196 407 196q192 0 305 -154q102 -138 102 -343q0 -223 -119 -380q-134 -176 -359 -176q-177 0 -305 122q-140 134 -147 356zM307 421q0 -115 65 -176q52 -49 121 -49q84 0 145 56q70 67 75 180q1 21 1 41q0 268 -163 269h-2 q-116 0 -184 -107q-58 -92 -58 -214z" />
<glyph unicode="p" horiz-adv-x="1051" d="M76 854q0 80 35 137q42 64 112 64q53 0 89.5 -36.5t36.5 -87.5l-1 -9q65 36 129.5 54t130.5 18q220 0 322 -188q76 -141 76 -365q0 -211 -120 -349q-129 -149 -345 -149q-82 0 -173 20l-1 -392q0 -56 -37.5 -92.5t-95.5 -36.5q-57 0 -94.5 36.5t-37.5 92.5q0 45 2 358 q1 116 1 210.5t-1 168.5q-3 208 -14 357q-13 190 -14 190v-1zM359 624q12 -198 12 -396q85 -28 170 -28q99 0 152 70q48 63 48 171q0 129 -11 179q-28 117 -122 117q-61 0 -123.5 -28t-125.5 -85z" />
<glyph unicode="q" horiz-adv-x="1022" d="M19 389q0 282 168 455q174 176 469 176h3q50 0 83 -25q34 21 68 21q55 0 94.5 -40.5t39.5 -92.5q0 -272 -33 -586q-22 -175 -44 -351q-24 -194 -24 -351q0 -56 -37.5 -92.5t-95.5 -36.5q-132 0 -132 161q0 24 3 49q8 69 27 276q-40 -9 -72 -9q-223 0 -364 112 q-153 121 -153 334zM288 386q0 -93 58 -151q62 -60 171 -60h11q66 2 99 73q43 94 46 334q0 16 11 203q-12 0 -30 2q-48 5 -58 3q-159 -27 -241 -154q-67 -105 -67 -250z" />
<glyph unicode="r" horiz-adv-x="944" d="M80 62v629q0 30 2 89t2 89q0 54 32 90t91 36q107 0 127 -110q170 127 377 127q192 0 192 -256q0 -48 -1 -64q-8 -147 -133 -147q-121 0 -121 125l-5 97q-216 -35 -309 -222l1 -483q0 -54 -37.5 -90t-94.5 -36q-60 0 -93 38q-30 35 -30 88z" />
<glyph unicode="s" horiz-adv-x="957" d="M50 140q0 96 114 96q44 0 127.5 -28t128.5 -28q195 0 196 79q0 49 -135 109q-198 87 -253 125q-136 95 -136 232q0 193 205 260q120 39 364 39q96 0 143 -25q63 -33 63 -123q0 -173 -93 -173q-95 0 -114 79q-39 7 -79 7q-232 0 -232 -63q0 -38 140 -101q190 -87 257 -136 q139 -101 139 -228q0 -165 -153 -250q-124 -69 -305 -69q-127 0 -233 40q-144 54 -144 158z" />
<glyph unicode="t" horiz-adv-x="926" d="M24 902q0 54 36.5 91.5t94.5 37.5q35 0 163 -11q-1 30 -5 101q-4 62 -4 95q0 54 39.5 89.5t95.5 35.5q142 0 142 -239l-2 -79q59 9 97 9q110 0 150 -14q77 -27 77 -118q0 -54 -37.5 -90.5t-94.5 -36.5q-20 0 -47.5 1.5t-47.5 1.5q-40 0 -92 -8q18 -388 18 -507 q0 -12 1 -46.5t1 -55.5q0 -220 -140 -220q-52 0 -91 32q-42 35 -42 87q0 34 3 103t3 104q0 116 -18 497q-59 3 -179.5 16t-120.5 124z" />
<glyph unicode="u" horiz-adv-x="1022" d="M51 630q0 125 29 285q19 108 129 108q56 0 95.5 -35t39.5 -88q0 -43 -14 -133t-14 -137q0 -136 9 -237t27 -167q24 -11 46.5 -16.5t44.5 -5.5q106 0 234 30q0 74 -1 168q-2 113 -2 162q0 196 18 339q15 115 131 115q57 0 97 -36q38 -33 37 -82v-7q-17 -340 -18 -340v2 q0 -64 1 -194t1 -194q0 -20 3.5 -60t3.5 -60q0 -54 -39 -89t-96 -35q-80 0 -116 72q-123 -45 -254 -45q-137 0 -230 58q-105 66 -125 193q-37 240 -37 429z" />
<glyph unicode="v" horiz-adv-x="956" d="M21 890q0 52 42 88t95 36q83 0 118 -76q55 -116 214 -543q50 108 140 330q27 74 83 206q40 77 119 77q54 0 96 -35.5t42 -88.5q0 -34 -156 -380q-127 -282 -201 -433q-4 -48 -38.5 -78.5t-85.5 -30.5q-97 0 -138 99q-103 260 -317 774q-13 29 -13 55z" />
<glyph unicode="w" horiz-adv-x="1344" d="M35 876q0 53 39.5 88t95.5 35q104 0 128 -102q12 -54 21 -133q11 -113 14 -133q13 -75 39 -245q71 195 163 485q39 125 148 125q106 0 140 -140q24 -98 51 -254q39 -228 48 -271q8 30 150 584q21 82 120 82q55 0 97 -35.5t42 -87.5q0 -10 -5 -28q-101 -377 -203 -684 q-29 -86 -94 -177q-45 -63 -121 -63h-2q-121 2 -190 234q-26 88 -61 329q-20 -42 -25 -57q-50 -119 -146 -369q-15 -41 -43 -65q-41 -64 -120 -67h-2q-44 0 -93 81q-53 83 -86 215q-30 119 -92 518q-13 87 -13 135z" />
<glyph unicode="x" horiz-adv-x="1160" d="M20 125q0 55 79 127q63 55 127 109q58 59 182 179l-108 150q-67 89 -125 138q-50 41 -50 93q0 50 38 88.5t90 38.5q69 0 189 -137l153 -198q83 69 164 139q102 88 146 150q42 59 105 59q52 0 92.5 -36.5t40.5 -86.5q0 -62 -99 -159q-55 -47 -142 -124l-146 -137l292 -358 q32 -39 32 -77q0 -50 -40.5 -87.5t-91.5 -37.5q-54 0 -96 46q-87 94 -286 339q-77 -78 -241 -227q-51 -43 -78 -72q-43 -44 -95 -44t-92 37.5t-40 87.5z" />
<glyph unicode="y" horiz-adv-x="1086" d="M6 866q0 52 41 91t95 39q63 0 99 -47q136 -181 318 -546q102 228 125 275q68 143 133 251q41 69 113 69q54 0 96 -36.5t42 -88.5q0 -28 -16 -62q-104 -218 -331 -684q-123 -251 -187 -416q-20 -59 -64 -177q-34 -90 -122 -90q-55 0 -96.5 35.5t-41.5 89.5q0 89 204 529 q-106 208 -335 613q-23 37 -47 74q-26 44 -26 81z" />
<glyph unicode="z" horiz-adv-x="1057" d="M47 38q0 62 61 113q239 202 500 592q-60 -3 -115 -3q-146 0 -297 21q-118 17 -118 125q0 53 36.5 90.5t92.5 37.5q47 0 142.5 -10t143.5 -10q66 0 196.5 8t195.5 8q120 0 120 -98q0 -86 -81.5 -178.5t-196.5 -248.5q-161 -217 -200 -267q59 2 97 2t111.5 -14t111.5 -14 q57 0 95 -36t38 -91q0 -54 -37.5 -89.5t-95.5 -35.5q-39 0 -112.5 13t-110.5 13q-215 0 -402 -35q-25 -5 -42 -5q-53 0 -91 29q-42 32 -42 83z" />
<glyph unicode="{" horiz-adv-x="720" d="M-33 536q0 56 72 127q61 61 126 93q1 41 -4 184q-4 152 -4 184q0 317 215 406q71 30 142 30q62 0 119 -29q75 -39 75 -110q0 -89 -120 -105q-26 -2 -79 -6q-101 -10 -101 -159q0 -39 6 -188.5t6 -188.5q0 -54 -32 -120q-34 -69 -84 -111q101 -132 101 -217 q0 -30 -7.5 -91t-7.5 -92q0 -74 24 -155q32 -110 88 -110q92 0 128 -14q60 -26 60 -107q0 -126 -188 -126q-178 0 -284 189q-85 152 -85 323q0 25 8 75.5t8 76.5q0 57 -91 118t-91 123z" />
<glyph unicode="|" horiz-adv-x="828" d="M299 -109q0 27 0.5 80.5t0.5 75.5v1480q0 52 37 85.5t90 33.5q54 0 87.5 -34t33.5 -85v-1731q-1 -50 -26 -90q-33 -54 -96 -54q-126 0 -127 239z" />
<glyph unicode="}" horiz-adv-x="720" d="M-33 1421q0 71 75 110q57 29 119 29q71 0 142 -30q214 -89 214 -406q0 -32 -3 -183q-5 -142 -4 -184q65 -31 126 -93q72 -72 72 -128q0 -45 -41 -84l-90 -66q-52 -41 -52 -91q0 -26 8 -76.5t8 -75.5q0 -171 -84 -323q-106 -189 -284 -189q-188 0 -188 126q0 81 60 107 q36 14 128 14q55 0 88 110q24 81 24 155q0 31 -7.5 92t-7.5 91q0 85 101 217q-50 42 -84 111q-33 66 -33 120q0 39 6.5 188.5t6.5 188.5q0 149 -101 159q-105 11 -127 19q-72 23 -72 92z" />
<glyph unicode="~" d="M44 592q0 23 14 48q54 103 144 172q109 85 233 85q94 0 168 -59q5 -4 107 -110q60 -61 117 -65q7 -1 35 75q46 125 134 125q125 0 125 -122q0 -102 -83 -192q-91 -101 -217 -101q-121 0 -215 67q-50 34 -150 145l-21 24q-62 0 -156 -138q-39 -57 -107 -57q-50 0 -88 28 q-40 31 -40 75z" />
<glyph unicode="&#xa1;" horiz-adv-x="467" d="M119 1423q0 49 40 84q38 34 88 34q57 0 107 -62q45 -56 45 -105q0 -50 -39 -83.5t-89 -33.5q-58 0 -107 61q-45 57 -45 105zM120 55v1019q0 51 35 84.5t89 33.5t89.5 -33.5t35.5 -84.5q0 -37 1.5 -111.5t1.5 -111.5q0 -133 -1.5 -398.5t-1.5 -397.5q0 -51 -35.5 -84.5 t-89.5 -33.5t-89 33.5t-35 84.5z" />
<glyph unicode="&#xa2;" d="M76 838q0 178 124 352t299 234q1 114 8 151q16 88 70 93q46 3 79 -31t33 -85q0 -99 -1 -128q123 -20 174 -45q44 48 111 48q46 0 72.5 -28.5t26.5 -68.5q0 -54 -44 -158q-51 -117 -97 -117q-27 0 -63 35l-53 53q-14 13 -127 49v-707q83 14 137 81q6 9 69 114q32 56 71 54 q51 -2 91 -28q47 -31 47 -77q0 -20 -11 -45q-127 -304 -409 -329v-98q0 -124 -94 -124q-52 0 -71 19.5t-19 70.5v142q-423 150 -423 573zM312 838q0 -260 187 -337v674q-60 -39 -122 -146q-65 -112 -65 -191z" />
<glyph unicode="&#xa3;" horiz-adv-x="1560" d="M-3 769q0 49 34.5 84t87.5 35q17 0 52.5 -2t53.5 -2h28v16q-2 262 143 442q163 204 451 204q162 0 299 -68q176 -87 176 -242q0 -50 -39 -83.5t-89 -33.5q-63 0 -96 50q-54 82 -68 94q-62 50 -196 50q-164 0 -252 -123q-81 -111 -81 -290q100 8 184 8q56 0 167.5 -5 t167.5 -5q52 0 87.5 -34.5t35.5 -84.5q0 -51 -35.5 -85t-87.5 -34q-56 0 -167.5 6t-167.5 6q-61 0 -146 -6q49 -196 49 -290q0 -91 -24 -174q75 -3 210 -57q130 -52 209 -52q183 0 203.5 95.5t25.5 105.5q24 48 102 48q58 0 91.5 -36t33.5 -89q0 -56 -22 -121 q-82 -240 -434 -240q-91 0 -231.5 54t-223.5 54q-61 0 -142 -38t-107 -38q-50 0 -86 35t-36 82q0 40 47 88q70 71 89 101q47 76 47 182q0 81 -48 273q-49 -2 -114 -2q-181 0 -181 122z" />
<glyph unicode="&#xa4;" d="M2 333q0 43 47 100q40 41 82 83q49 51 74 83q-15 34 -22.5 70t-7.5 73q0 46 14.5 89t42.5 81q-173 169 -173 229q0 52 41.5 88.5t96.5 36.5q46 0 82 -30q31 -32 62 -63q39 -37 115 -117q39 10 82.5 14.5t90.5 4.5q22 0 52.5 -8.5t70.5 -25.5q284 162 321 162 q55 0 94.5 -40t39.5 -90q0 -63 -64 -102q-74 -46 -204 -118q11 -30 16.5 -65t5.5 -74q0 -41 -15 -84t-46 -89q205 -169 205 -241q0 -51 -42 -89t-95 -38q-51 0 -105 47q-41 42 -82 83q-45 44 -77 67q-26 -7 -55 -10.5t-61 -3.5q-49 0 -98.5 15t-99.5 44q-51 -54 -150 -161 q-44 -47 -101 -47q-55 0 -96 37t-41 89zM443 742q0 -62 41 -98t108 -36q43 0 74 39q28 35 28 67q0 56 -24.5 84t-73.5 28q-57 0 -105 -27.5t-48 -56.5z" />
<glyph unicode="&#xa5;" d="M47 1287q0 47 37.5 80t84.5 33q61 0 98 -54q81 -117 120 -193q47 -90 103 -178l101 -159q93 110 223 370q29 46 79 138q31 70 107 70q47 0 83 -30q38 -32 38 -80q0 -44 -190 -362q17 2 36 2q51 0 84.5 -32.5t33.5 -80.5t-33.5 -80t-84.5 -32q-33 0 -88 -8q-64 -8 -87 -10 q-30 -34 -85 -103q46 -1 73 -1q19 0 55 5.5t53 5.5q51 0 83.5 -35t32.5 -80q0 -119 -200 -119q-24 0 -101 4v-89l1 -58q0 -26 4 -74.5t4 -74.5q0 -48 -33 -80.5t-84 -32.5t-84.5 32.5t-33.5 80.5q0 29 -3 86.5t-3 86.5v131q-161 11 -177 15q-109 25 -111 108q-1 69 55 95 q41 19 115 14l53 -3h56q-19 26 -61 86q-15 1 -197 18q-108 10 -108 111q0 108 119 108q18 0 43 -1q-211 334 -211 370z" />
<glyph unicode="&#xa6;" horiz-adv-x="828" d="M303 -199v624q0 51 38 85t90 34t85 -33.5t33 -85.5v-627q0 -145 -125 -145q-121 0 -121 148zM303 900v624q0 51 38 85.5t90 34.5t85 -34t33 -86v-626q0 -145 -125 -145q-121 0 -121 147z" />
<glyph unicode="&#xa7;" horiz-adv-x="1248" d="M74 344q0 52 35 85.5t89 33.5q74 0 102 -63q16 -59 33 -119q49 -143 279 -143q108 0 161.5 36t53.5 107q0 115 -227 166q-231 52 -305 108q-118 89 -118 303q0 97 101 198q-31 63 -47.5 110t-16.5 79q0 162 146 254q122 76 288 76q242 0 396 -158q43 -43 43 -93 q0 -46 -33.5 -82.5t-84.5 -36.5q-41 0 -141.5 72.5t-176.5 72.5q-67 0 -123 -29q-60 -31 -60 -75t43.5 -82.5t128.5 -71.5l269 -86q196 -81 196 -320q0 -39 -24 -98q-26 -65 -58 -91q69 -94 69 -208q0 -184 -151 -281q-128 -82 -322 -82q-230 0 -374 92q-171 111 -171 326z M378 845q0 -94 130 -146q16 -6 215 -57q44 -9 124 -33q9 60 9 95q0 75 -180 147q-131 48 -260 96q-9 -11 -23.5 -51.5t-14.5 -50.5z" />
<glyph unicode="&#xa8;" horiz-adv-x="1093" d="M184 1254q0 46 60 86q56 38 108 38q186 0 185 -139q0 -48 -68 -87q-58 -35 -106 -35q-179 0 -179 137zM611 1240q0 135 199 135q52 0 103 -35q59 -39 59 -94q0 -64 -66 -100q-54 -29 -129 -29q-57 0 -107 31q-59 37 -59 92z" />
<glyph unicode="&#xa9;" horiz-adv-x="1563" d="M48 876q0 264 250 471.5t569 207.5q296 0 468 -180q165 -171 165 -443q0 -238 -205 -455q-220 -233 -510 -236q-346 -4 -535 149q-202 162 -202 486zM296 876q0 -202 121 -312q107 -96 279 -96q209 0 375 131q180 142 180 351q0 167 -82 262q-88 104 -263 105 q-276 2 -446 -127q-164 -122 -164 -314zM395 863q0 162 157 268q140 94 307 94q170 0 170 -108q0 -96 -90 -96q-10 0 -28.5 5t-28.5 5q-99 0 -181 -53q-79 -50 -77 -103q4 -97 139 -97q60 0 139 50.5t116 50.5q79 0 79 -101q0 -86 -104 -143q-95 -53 -213 -55 q-149 -3 -260 66q-125 80 -125 217z" />
<glyph unicode="&#xaa;" d="M128 1252q0 144 121.5 253.5t284.5 108.5q158 -1 198 -7q120 -16 166 -82q30 -28 36 -73q21 -164 48 -471q3 -58 -40 -94q-39 -32 -94 -32q-51 0 -88 28q-40 30 -45 83q-113 -94 -268 -94q-132 0 -233 144q-86 124 -86 236zM396 1252q0 -38 11 -79q14 -55 39 -55 q169 2 204 253q-43 -1 -131 1q-42 3 -82.5 -37t-40.5 -83z" />
<glyph unicode="&#xab;" horiz-adv-x="1255" d="M8 582q0 66 86 104t192 141q146 140 175 162q38 30 81 30q51 0 88.5 -35.5t37.5 -81.5q0 -45 -40 -81q-82 -79 -254 -231q73 -70 225 -202q47 -38 47 -87q0 -46 -36.5 -81.5t-87.5 -35.5q-54 0 -134 68l-112 108q-90 86 -171 115q-97 34 -97 107zM588 563q0 67 86 105 t192 139q145 141 174 163q40 30 82 30q51 0 88.5 -35t37.5 -81q0 -45 -41 -82q-82 -79 -253 -231q73 -70 225 -202q47 -38 47 -87q0 -46 -37 -81.5t-88 -35.5q-54 0 -134 68q-56 55 -112 109q-91 87 -171 115q-96 34 -96 106z" />
<glyph unicode="&#xac;" d="M146 592q0 76 61 126q56 46 125 46t204.5 3.5t203.5 3.5q19 0 58.5 2t59.5 2q66 0 128 -53q65 -56 67 -124q1 -35 -3 -155q-4 -131 -4 -156q0 -46 -35.5 -76.5t-88.5 -30.5q-54 0 -89 30.5t-35 76.5q0 129 -1 213q-380 -16 -464 -16q-68 0 -121 23q-66 30 -66 85z" />
<glyph unicode="&#xad;" d="M210 519q0 56 53 89q45 28 105 28q76 0 227.5 4t227.5 4q59 0 104 -24q58 -31 58 -91q0 -105 -146 -115q-132 -10 -471 -10q-60 0 -105 27q-53 33 -53 88z" />
<glyph unicode="&#xae;" horiz-adv-x="1563" d="M49 814q0 349 212 546q221 206 631 206q269 0 451 -204q173 -192 173 -445q0 -315 -251 -525q-231 -193 -527 -193q-300 0 -487 153q-202 166 -202 462zM297 814q0 -193 125 -291q115 -90 316 -90q197 0 354 126q172 140 173 355q1 169 -107 291q-114 127 -282 127 q-289 0 -434 -129.5t-145 -388.5zM400 704q0 147 70 392q17 58 99.5 114.5t164.5 60.5q32 2 59 2q322 0 322 -234q0 -133 -90 -188q-53 -35 -201 -60q37 -15 142 -81q40 -29 46 -36q17 -18 17 -49q-1 -91 -90 -91q-84 0 -167 63q-24 18 -140 132q-18 -98 -31 -128 q-32 -63 -105 -61q-45 0 -72 56q-24 48 -24 108zM660 920q253 11 253 141q0 77 -163 68h-49q-19 -93 -41 -209z" />
<glyph unicode="&#xaf;" horiz-adv-x="1232" d="M-72 1635v178h1380v-178h-1380z" />
<glyph unicode="&#xb0;" d="M211 1281q0 144 113 240q108 92 257 92q165 0 271 -100.5t106 -252.5q0 -139 -123 -234q-117 -91 -271 -91q-166 0 -264 107q-89 97 -89 239zM431 1281q0 -63 34 -104q36 -44 99 -44q69 0 121 38t52 89q0 72 -42 113.5t-114 41.5q-58 0 -102 -37q-48 -41 -48 -97z" />
<glyph unicode="&#xb1;" d="M147 -4q0 113 145 113q63 0 189 5t188 5q32 0 95 1t94 1q196 0 196 -120q0 -47 -33 -82q-35 -36 -88 -36q-11 0 -34 3.5t-35 3.5q-88 0 -265 -6.5t-265 -6.5q-68 0 -121 26q-66 33 -66 93zM147 602q0 78 61 101q34 12 126 12q54 0 125 4q0 9 -1 35.5t-1 43.5 q0 206 131 206q50 0 87.5 -32.5t37.5 -81.5q0 -16 -3 -49t-3 -50v-68q21 -1 34 -1q19 0 58.5 2.5t58.5 2.5q196 0 196 -121q0 -47 -33 -82q-35 -36 -88 -36q-11 0 -34.5 3t-35.5 3q-25 0 -77 -2h-76l1 -33q0 -122 -11 -163q-28 -95 -124 -95q-55 0 -86 36q-28 33 -28 81 q0 -7 -2 169q-72 -4 -126 -4q-68 0 -121 26q-66 32 -66 93z" />
<glyph unicode="&#xb2;" d="M286 994q0 119 90 203q45 41 195 128q107 61 107 110q0 10 -25 32t-39 22q-65 0 -106.5 -70t-103.5 -70q-44 0 -78 27.5t-34 70.5q0 103 116 173q100 58 210 58q105 0 192.5 -74.5t87.5 -168.5q0 -150 -104 -229q-110 -68 -218 -137q66 -1 73 -1q32 0 93.5 8.5t91.5 8.5 q47 0 79 -32q29 -30 29 -70q0 -84 -136 -107q-51 -9 -160 -9q-33 0 -96.5 2t-96.5 2q-61 0 -107 26q-60 32 -60 97z" />
<glyph unicode="&#xb3;" d="M303 924q0 42 32 75.5t78 33.5q21 0 62 -12t64 -12q133 0 133 35q0 78 -58 88q-58 7 -116 12q-61 21 -61 93q0 60 52 88q13 7 96 31q51 15 51 43q0 41 -108 41q-13 0 -40 -8t-42 -8q-41 0 -69.5 25t-28.5 67q0 70 67 107q52 29 113 29q129 0 219 -56q110 -69 110 -197 q0 -76 -42 -137q77 -75 77 -218q0 -128 -127 -195q-99 -52 -226 -52q-77 0 -145 27q-91 35 -91 100z" />
<glyph unicode="&#xb4;" horiz-adv-x="1093" d="M166 1248q0 36 40 78q36 32 70 65q103 112 121 129q88 78 155 78q51 0 88 -33.5t37 -75.5q0 -49 -51.5 -84t-126.5 -118q-79 -86 -125 -120q-37 -27 -82 -27q-51 0 -88.5 32.5t-37.5 75.5z" />
<glyph unicode="&#xb5;" d="M-4 -271q0 29 77 232q79 207 86 254q3 41 11 122q37 343 141 585q44 101 145 101q48 0 81 -27q36 -30 36 -78q0 -44 -38 -148q-47 -127 -54 -154q-56 -242 -56 -390v-15q39 -19 78 -19q114 0 249 33l73 345q45 202 97 340q41 108 146 108q47 0 80 -26q39 -29 39 -77 q0 -27 -46 -183q-23 -78 -54 -192q-22 -98 -86 -392q-5 -41 -21 -124q-12 -51 -55 -84t-98 -33q-80 0 -105 72q-130 -44 -260 -44q-66 0 -118 13q-60 -172 -97 -258q-35 -80 -118 -80q-52 0 -92.5 33.5t-40.5 85.5z" />
<glyph unicode="&#xb6;" horiz-adv-x="1495" d="M30 819q0 244 145 421q137 168 381 251q38 13 192 54q172 46 197 46q52 0 88 -40q34 -35 34 -83q0 -71 -72 -105q1 -39 1 -64q0 -354 -48 -735q-58 -461 -125 -667q-28 -85 -116 -85q-50 0 -88 32q-40 33 -40 84q0 11 6 34q7 29 66 389h-15q-226 0 -404 117 q-202 134 -202 351zM277 819q0 -103 119 -170q108 -61 240 -61q24 0 64 11q50 284 50 605q0 47 -1 92q-226 -57 -338 -157q-134 -119 -134 -320zM910 -60q0 19 8 42q71 217 140 596q73 396 73 601q0 47 -15 139t-15 138q0 52 36.5 84t89.5 32q92 0 120 -97q32 -111 32 -296 q0 -162 -84 -657q-88 -520 -147 -626q-40 -73 -110 -73q-50 0 -88 32q-40 35 -40 85z" />
<glyph unicode="&#xb7;" horiz-adv-x="489" d="M137 687q0 49 34.5 84t84.5 35q49 0 84 -35t35 -84t-35 -84t-84 -35q-50 0 -84.5 35t-34.5 84z" />
<glyph unicode="&#xb8;" horiz-adv-x="1093" d="M313 -270q0 79 104 79q37 0 86 -20.5t84 -20.5q27 1 41 11.5t14 31.5q0 25 -15 44q-16 19 -49 32l-121 40q-64 29 -64 85q0 40 30 69t77 29q130 0 246 -87q123 -92 123 -207q0 -114 -70.5 -178.5t-200.5 -64.5q-92 0 -179 38q-106 46 -106 119z" />
<glyph unicode="&#xb9;" d="M306 929q0 63 50 80q26 10 100 10q-5 0 43 1v319q-41 -16 -77 -16q-45 0 -76 28t-31 73q0 53 40 82q42 24 84 47q46 31 91 63q63 39 94 39q96 0 96 -111v-20q-1 -11 -1 -17v-487q93 1 124 -5q73 -18 73 -83q0 -44 -31 -76.5t-79 -32.5h-391q-47 0 -78 31.5t-31 74.5z" />
<glyph unicode="&#xba;" d="M166 1241q0 143 146.5 268.5t314.5 123.5q134 -1 272 -122q133 -118 133 -222q0 -216 -111.5 -324.5t-333.5 -108.5q-185 0 -310 132q-111 117 -111 253zM434 1241q0 -61 49.5 -107.5t115.5 -46.5q68 0 118 64q47 61 47 138q0 28 -41 58q-50 35 -123 35q-58 0 -112 -49 t-54 -92z" />
<glyph unicode="&#xbb;" horiz-adv-x="1255" d="M8 884q0 -45 41 -82q82 -79 252 -231q-73 -70 -224 -202q-47 -38 -47 -87q0 -46 37 -81.5t88 -35.5q53 0 134 68q56 55 111 109q92 87 171 115q97 34 97 106q0 67 -86.5 105t-191.5 139q-145 141 -174 163q-40 30 -83 30q-50 0 -87.5 -35t-37.5 -81zM588 902 q0 -45 40 -81q81 -79 253 -231q-73 -70 -224 -202q-47 -38 -47 -87q0 -46 36.5 -81.5t86.5 -35.5q54 0 135 68l111 108q90 86 172 115q97 34 97 107q0 66 -86.5 104t-191.5 141q-146 140 -175 162q-39 30 -82 30q-51 0 -88 -35.5t-37 -81.5z" />
<glyph unicode="&#xbc;" d="M76 635q0 44 32 74.5t78 30.5q43 0 130.5 3t130.5 3q-20 0 527 -14q185 -4 185 -112q0 -49 -33 -77.5t-81 -28.5q-15 0 -198 9q-202 11 -400 11q-43 0 -130.5 -3t-130.5 -3q-46 0 -78 30.5t-32 76.5zM179 -56q0 63 54 112q76 67 173 181q82 96 162 191q45 50 119 50 q45 0 80 -29.5t35 -75.5q0 -20 -12 -57t-12 -57q0 -84 2 -231q177 2 177 -104q0 -81 -101 -81q-26 0 -73 5q1 -85 1 -119q0 -67 -16.5 -85t-84.5 -18q-57 0 -74 90q-7 38 -7 138q-307 -18 -308 -18q-49 0 -82 30t-33 78zM306 929q0 63 50 80q26 10 100 10q-5 0 43 1v319 q-41 -16 -77 -16q-45 0 -76 28t-31 73q0 53 40 82q42 24 84 47q46 31 91 63q63 39 94 39q96 0 96 -111v-20q-1 -11 -1 -17v-487q93 1 124 -5q73 -18 73 -83q0 -44 -31 -76.5t-79 -32.5h-391q-47 0 -78 31.5t-31 74.5zM406 40q87 0 196 -1l-3 175q-86 -76 -193 -174z" />
<glyph unicode="&#xbd;" d="M61 635q0 44 32.5 74.5t78.5 30.5q43 0 131 3t131 3q104 0 263 -6q227 -8 263 -8q185 -5 185 -113q0 -48 -33 -77t-81 -29q4 0 -197.5 10.5t-399.5 10.5q-43 0 -131 -3t-131 -3q-46 0 -78.5 30.5t-32.5 76.5zM272 -257q0 125 90 214q44 42 196 134q105 65 105 116 q0 11 -25 34t-38 23q-65 0 -107 -74t-103 -74q-44 0 -78.5 29.5t-34.5 74.5q0 109 117 181q99 63 210 63q104 0 191.5 -78.5t87.5 -178.5q0 -157 -103 -242q-110 -72 -218 -144q31 -1 73 -1q31 0 93.5 9.5t92.5 9.5q47 0 79 -34q28 -32 28 -75q0 -89 -135 -113 q-50 -9 -161 -9q-33 0 -97 2t-96 2q-61 0 -108 28q-59 35 -59 103zM293 929q0 62 50 80q25 9 99 9q-4 0 44 1v320q-42 -16 -77 -16q-45 0 -76.5 28t-31.5 73q0 53 41 82q41 24 82 47q46 31 92 63q64 39 95 39q67 0 86 -52q9 -25 9 -102v-482q94 1 123 -5q73 -17 73 -82 q0 -44 -30 -76q-32 -34 -80 -34h-392q-47 0 -77 32t-30 75z" />
<glyph unicode="&#xbe;" d="M61 634q0 45 32 75.5t79 30.5q43 0 131 3t131 3q196 0 447 -13q157 -7 165 -9q99 -21 99 -105q0 -49 -32.5 -77.5t-81.5 -28.5q24 0 -197.5 10.5t-399.5 10.5q-43 0 -131 -3t-131 -3q-47 0 -79 30t-32 76zM165 -56q0 64 54 112q76 67 174 181q80 96 162 191q45 50 119 50 q44 0 78.5 -29.5t34.5 -75.5q0 -20 -12 -57t-12 -57q0 -34 4 -231q177 2 177 -104q0 -81 -101 -81q-26 0 -73 5q1 -85 1 -119q0 -67 -17.5 -85t-85.5 -18q-56 0 -74 90q-6 38 -6 138q-308 -18 -309 -18q-49 0 -81.5 29.5t-32.5 78.5zM303 924q0 42 32 75.5t78 33.5 q21 0 62 -12t64 -12q133 0 133 35q0 78 -58 88q-58 7 -116 12q-61 21 -61 93q0 60 52 88q13 7 96 31q51 15 51 43q0 41 -108 41q-13 0 -40 -8t-42 -8q-41 0 -69.5 25t-28.5 67q0 70 67 107q52 29 113 29q129 0 219 -56q110 -69 110 -197q0 -76 -42 -137q77 -75 77 -218 q0 -128 -127 -195q-99 -52 -226 -52q-77 0 -145 27q-91 35 -91 100zM392 40q87 0 196 -1l-3 175q-87 -76 -193 -174z" />
<glyph unicode="&#xbf;" horiz-adv-x="1112" d="M81 436q0 145 91 252q56 66 202 165q152 104 211 168q45 50 100 50q56 0 97 -39t41 -91q0 -77 -123 -173q-114 -81 -230 -161q-122 -95 -122 -171q0 -89 90.5 -167.5t188.5 -78.5q52 0 141.5 59t127.5 59q56 0 95 -41.5t39 -92.5q0 -96 -168 -176q-141 -67 -235 -67 q-208 0 -377 153.5t-169 351.5zM595 1358q0 60 31 111q40 65 112 65q55 0 100 -34q49 -39 49 -96q0 -66 -35 -118q-44 -64 -121 -64q-67 0 -104 45q-32 39 -32 91z" />
<glyph unicode="&#xc0;" horiz-adv-x="1438" d="M125 106q0 49 141 332q-14 30 -12 55q4 47 93 72q136 237 303 490q240 364 296 364q106 0 141 -128q19 -103 61 -308q58 -276 143 -633q7 -26 49 -126q34 -83 34 -124q0 -56 -41.5 -93.5t-94.5 -35.5q-76 3 -153 179q-51 113 -87 261q-71 -11 -232 -21q-152 -11 -233 -25 q-44 -106 -153 -318q-42 -69 -117 -69q-53 0 -95.5 36t-42.5 92zM645 1927q0 42 36 76t87 34q79 0 223 -149q141 -145 141 -210q0 -44 -38.5 -74.5t-88.5 -30.5q-62 0 -101 48l-92 118q-52 62 -115 104q-52 34 -52 84zM674 606q43 9 134 15q107 7 135 11q-23 124 -63 324 q-75 -128 -206 -350z" />
<glyph unicode="&#xc1;" horiz-adv-x="1438" d="M125 106q0 49 141 332q-14 30 -12 55q4 47 93 72q136 237 303 490q240 364 296 364q106 0 141 -128q19 -103 61 -308q58 -276 143 -633q7 -26 49 -126q34 -83 34 -124q0 -56 -41.5 -93.5t-94.5 -35.5q-76 3 -153 179q-51 113 -87 261q-71 -11 -232 -21q-152 -11 -233 -25 q-44 -106 -153 -318q-42 -69 -117 -69q-53 0 -95.5 36t-42.5 92zM674 606q43 9 134 15q107 7 135 11q-23 124 -63 324q-75 -128 -206 -350zM806 1673q0 36 40 78q36 32 70 65q103 112 121 129q88 78 155 78q51 0 88 -33.5t37 -75.5q0 -49 -51.5 -84t-126.5 -118 q-79 -86 -125 -120q-37 -27 -82 -27q-51 0 -88.5 32.5t-37.5 75.5z" />
<glyph unicode="&#xc2;" horiz-adv-x="1438" d="M125 106q0 49 141 332q-14 30 -12 55q4 47 93 72q136 237 303 490q240 364 296 364q106 0 141 -128q19 -103 61 -308q58 -276 143 -633q7 -26 49 -126q34 -83 34 -124q0 -56 -41.5 -93.5t-94.5 -35.5q-76 3 -153 179q-51 113 -87 261q-71 -11 -232 -21q-152 -11 -233 -25 q-44 -106 -153 -318q-42 -69 -117 -69q-53 0 -95.5 36t-42.5 92zM496 1678q0 43 41 78q51 43 290 278q37 36 87 36q64 0 142 -57q28 -20 118 -102q51 -47 153 -142q35 -34 35 -73q0 -44 -38 -76.5t-89 -32.5q-47 0 -87 33q-68 65 -210 192q-233 -245 -316 -245 q-51 0 -88.5 33.5t-37.5 77.5zM674 606q43 9 134 15q107 7 135 11q-23 124 -63 324q-75 -128 -206 -350z" />
<glyph unicode="&#xc3;" horiz-adv-x="1438" d="M125 106q0 49 141 332q-14 30 -12 55q4 47 93 72q136 237 303 490q240 364 296 364q106 0 141 -128q19 -103 61 -308q58 -276 143 -633q7 -26 49 -126q34 -83 34 -124q0 -56 -41.5 -93.5t-94.5 -35.5q-76 3 -153 179q-51 113 -87 261q-71 -11 -232 -21q-152 -11 -233 -25 q-44 -106 -153 -318q-42 -69 -117 -69q-53 0 -95.5 36t-42.5 92zM500 1693q0 12 5 26q29 90 109 146q85 60 197 60q96 0 154 -37q35 -21 102 -96q39 -42 86 -42q39 0 60 27q15 28 32 55q5 15 18 45q23 41 92 41q47 0 79 -26t32 -64q0 -36 -46 -110q-42 -68 -73 -95 q-65 -54 -165 -54q-112 0 -180 30q-63 29 -125 103q-34 41 -66 41q-53 0 -93.5 -69.5t-105.5 -69.5q-44 0 -77 24q-35 26 -35 65zM674 606q43 9 134 15q107 7 135 11q-23 124 -63 324q-75 -128 -206 -350z" />
<glyph unicode="&#xc4;" horiz-adv-x="1438" d="M125 106q0 49 141 332q-14 30 -12 55q4 47 93 72q136 237 303 490q240 364 296 364q106 0 141 -128q19 -103 61 -308q58 -276 143 -633q7 -26 49 -126q34 -83 34 -124q0 -56 -41.5 -93.5t-94.5 -35.5q-76 3 -153 179q-51 113 -87 261q-71 -11 -232 -21q-152 -11 -233 -25 q-44 -106 -153 -318q-42 -69 -117 -69q-53 0 -95.5 36t-42.5 92zM578 1686q0 46 60 86q56 38 108 38q186 0 185 -139q0 -48 -68 -87q-58 -35 -106 -35q-179 0 -179 137zM674 606q43 9 134 15q107 7 135 11q-23 124 -63 324q-75 -128 -206 -350zM1005 1672q0 135 199 135 q52 0 103 -35q59 -39 59 -94q0 -64 -66 -100q-54 -29 -129 -29q-57 0 -107 31q-59 37 -59 92z" />
<glyph unicode="&#xc5;" horiz-adv-x="1438" d="M125 106q0 49 141 332q-14 30 -12 55q4 47 93 72q136 237 303 490q240 364 296 364q106 0 141 -128q19 -103 61 -308q58 -276 143 -633q7 -26 49 -126q34 -83 34 -124q0 -56 -41.5 -93.5t-94.5 -35.5q-76 3 -153 179q-51 113 -87 261q-71 -11 -232 -21q-152 -11 -233 -25 q-44 -106 -153 -318q-42 -69 -117 -69q-53 0 -95.5 36t-42.5 92zM609 1627q0 138 113 219q107 75 274 75q133 0 229 -68q108 -72 108 -192q0 -151 -122 -226q-99 -62 -259 -63q-144 -2 -243 73q-100 73 -100 182zM674 606q43 9 134 15q107 7 135 11q-23 124 -63 324 q-75 -128 -206 -350zM830 1628q1 -25 49.5 -45.5t103.5 -20.5q65 0 97 25t32 74q0 29 -33 48t-83 19q-169 0 -166 -100z" />
<glyph unicode="&#xc6;" horiz-adv-x="2136" d="M6 134q0 35 24 72q299 467 521 715l298 359q222 244 363 244q41 0 77 -24q112 28 212 42t190 14q260 0 388 -56q87 -39 87 -121q0 -52 -37 -92q-39 -42 -96 -42q-16 0 -39 6q-175 43 -303 43q-72 0 -155 -11.5t-176 -34.5q5 -38 5 -68q0 -119 -13 -312q81 5 375 35 q186 20 231 20q59 0 98.5 -37.5t39.5 -94.5q0 -108 -119 -130q-78 -5 -233 -19q-136 -15 -411 -37q-5 -105 -5 -197q0 -193 20 -213q14 -15 123 -15q59 0 179 3.5t180 3.5q19 0 56 6t56 6q61 0 100.5 -36.5t39.5 -95.5q0 -99 -123 -132q-62 -17 -203 -19q-40 0 -108 1 q-76 1 -102 1q-297 0 -394 101q-93 96 -93 389q0 97 6 203q-154 -14 -461 -38q-80 -105 -235 -337q-38 -58 -117 -172q-44 -56 -108 -56q-54 0 -96 37t-42 89zM836 852q133 11 247 15q12 177 13 292q-53 -55 -260 -307z" />
<glyph unicode="&#xc7;" horiz-adv-x="1216" d="M48 482q0 324 281 663q238 287 489 287q40 0 74 -2.5t62 -9.5q44 43 102 43q93 0 123 -117q14 -58 14 -187q0 -55 -33 -95q-38 -45 -100 -45q-55 0 -89 33q-22 21 -44 67q-19 40 -29 45q-12 5 -80 5q-121 0 -279 -190q-222 -266 -222 -497q0 -103 68 -179q70 -78 170 -78 q92 0 190 51q35 18 150 95q75 50 112 50q57 0 96 -40.5t39 -93.5q0 -68 -138 -162q-111 -77 -236 -125q31 -55 31 -109q0 -169 -146 -236q-102 -46 -299 -46q-163 0 -163 109q0 44 30.5 75t78.5 31q18 0 54 -2t54 -2q84 0 108 5q62 14 62 66q0 39 -99 73q-69 24 -138 47 q-146 81 -219.5 199t-73.5 272z" />
<glyph unicode="&#xc8;" horiz-adv-x="1227" d="M90 393q0 128 19 386t19 385q0 34 -10 100t-10 99q0 146 135 146q42 0 78 -24q111 28 211.5 42t189.5 14q242 0 387 -56q88 -33 88 -122q0 -50 -34 -88q-39 -44 -98 -44q-20 0 -41 5q-155 43 -302 43q-72 0 -154.5 -11.5t-175.5 -34.5q0 -128 -9 -380q54 4 375 36 q184 18 233 18q56 0 96.5 -36t40.5 -95q0 -115 -122 -130q-77 -6 -229 -19q-137 -15 -411 -38q-7 -121 -7 -196q0 -189 22 -214q11 -13 121 -13q60 0 180 3t179 3q19 0 56.5 5.5t55.5 5.5q56 0 95 -31q46 -36 46 -100q0 -108 -113 -129q-96 -18 -398 -18q-313 0 -408 84 q-105 94 -105 404zM401 2031q0 42 36 76t87 34q79 0 223 -149q141 -145 141 -210q0 -44 -38.5 -74.5t-88.5 -30.5q-62 0 -101 48l-92 118q-52 62 -115 104q-52 34 -52 84z" />
<glyph unicode="&#xc9;" horiz-adv-x="1227" d="M90 393q0 128 19 386t19 385q0 34 -10 100t-10 99q0 146 135 146q42 0 78 -24q111 28 211.5 42t189.5 14q242 0 387 -56q88 -33 88 -122q0 -50 -34 -88q-39 -44 -98 -44q-20 0 -41 5q-155 43 -302 43q-72 0 -154.5 -11.5t-175.5 -34.5q0 -128 -9 -380q54 4 375 36 q184 18 233 18q56 0 96.5 -36t40.5 -95q0 -115 -122 -130q-77 -6 -229 -19q-137 -15 -411 -38q-7 -121 -7 -196q0 -189 22 -214q11 -13 121 -13q60 0 180 3t179 3q19 0 56.5 5.5t55.5 5.5q56 0 95 -31q46 -36 46 -100q0 -108 -113 -129q-96 -18 -398 -18q-313 0 -408 84 q-105 94 -105 404zM505 1802q0 36 40 78q36 32 70 65q103 112 121 129q88 78 155 78q51 0 88 -33.5t37 -75.5q0 -49 -51.5 -84t-126.5 -118q-79 -86 -125 -120q-37 -27 -82 -27q-51 0 -88.5 32.5t-37.5 75.5z" />
<glyph unicode="&#xca;" horiz-adv-x="1227" d="M90 393q0 128 19 386t19 385q0 34 -10 100t-10 99q0 146 135 146q42 0 78 -24q111 28 211.5 42t189.5 14q242 0 387 -56q88 -33 88 -122q0 -50 -34 -88q-39 -44 -98 -44q-20 0 -41 5q-155 43 -302 43q-72 0 -154.5 -11.5t-175.5 -34.5q0 -128 -9 -380q54 4 375 36 q184 18 233 18q56 0 96.5 -36t40.5 -95q0 -115 -122 -130q-77 -6 -229 -19q-137 -15 -411 -38q-7 -121 -7 -196q0 -189 22 -214q11 -13 121 -13q60 0 180 3t179 3q19 0 56.5 5.5t55.5 5.5q56 0 95 -31q46 -36 46 -100q0 -108 -113 -129q-96 -18 -398 -18q-313 0 -408 84 q-105 94 -105 404zM245 1774q0 43 41 78q51 43 290 278q37 36 87 36q64 0 142 -57q28 -20 118 -102q51 -47 153 -142q35 -34 35 -73q0 -44 -38 -76.5t-89 -32.5q-47 0 -87 33q-68 65 -210 192q-233 -245 -316 -245q-51 0 -88.5 33.5t-37.5 77.5z" />
<glyph unicode="&#xcb;" horiz-adv-x="1227" d="M90 393q0 128 19 386t19 385q0 34 -10 100t-10 99q0 146 135 146q42 0 78 -24q111 28 211.5 42t189.5 14q242 0 387 -56q88 -33 88 -122q0 -50 -34 -88q-39 -44 -98 -44q-20 0 -41 5q-155 43 -302 43q-72 0 -154.5 -11.5t-175.5 -34.5q0 -128 -9 -380q54 4 375 36 q184 18 233 18q56 0 96.5 -36t40.5 -95q0 -115 -122 -130q-77 -6 -229 -19q-137 -15 -411 -38q-7 -121 -7 -196q0 -189 22 -214q11 -13 121 -13q60 0 180 3t179 3q19 0 56.5 5.5t55.5 5.5q56 0 95 -31q46 -36 46 -100q0 -108 -113 -129q-96 -18 -398 -18q-313 0 -408 84 q-105 94 -105 404zM280 1799q0 46 60 86q56 38 108 38q186 0 185 -139q0 -48 -68 -87q-58 -35 -106 -35q-179 0 -179 137zM707 1785q0 135 199 135q52 0 103 -35q59 -39 59 -94q0 -64 -66 -100q-54 -29 -129 -29q-57 0 -107 31q-59 37 -59 92z" />
<glyph unicode="&#xcc;" horiz-adv-x="1074" d="M72 1297q0 57 38 92q36 33 87 38q85 7 294 7q188 0 485 -40q118 -16 118 -133q0 -61 -48 -97q-39 -29 -89 -29t-274 27q-13 -177 -13 -470l-1 -431q127 3 260 3q57 0 95 -38.5t38 -92.5q0 -53 -38 -91t-95 -38q-54 0 -161.5 -2.5t-161.5 -2.5q-63 0 -189.5 -17 t-190.5 -17q-57 0 -95 38t-38 92t38 92.5t95 38.5q65 0 172 14q-2 113 -2 434q0 261 19 498l-208 -6q-58 0 -96.5 37.5t-38.5 93.5zM313 1908q0 42 36 76t87 34q79 0 223 -149q141 -145 141 -210q0 -44 -38.5 -74.5t-88.5 -30.5q-62 0 -101 48l-92 118q-52 62 -115 104 q-52 34 -52 84z" />
<glyph unicode="&#xcd;" horiz-adv-x="1074" d="M34 1297q0 57 38 92q36 33 87 38q85 7 294 7q188 0 485 -40q118 -16 118 -133q0 -61 -48 -97q-39 -29 -89 -29t-274 27q-13 -177 -13 -470l-1 -431q127 3 260 3q57 0 95 -38.5t38 -92.5q0 -53 -38 -91t-95 -38q-54 0 -161.5 -2.5t-161.5 -2.5q-63 0 -189.5 -17 t-190.5 -17q-57 0 -95 38t-38 92t38 92.5t95 38.5q65 0 172 14q-2 113 -2 434q0 261 19 498l-208 -6q-58 0 -96.5 37.5t-38.5 93.5zM320 1673q0 36 40 78q36 32 70 65q103 112 121 129q88 78 155 78q51 0 88 -33.5t37 -75.5q0 -49 -51.5 -84t-126.5 -118q-79 -86 -125 -120 q-37 -27 -82 -27q-51 0 -88.5 32.5t-37.5 75.5z" />
<glyph unicode="&#xce;" horiz-adv-x="1074" d="M72 1297q0 57 38 92q36 33 87 38q85 7 294 7q188 0 485 -40q118 -16 118 -133q0 -61 -48 -97q-39 -29 -89 -29t-274 27q-13 -177 -13 -470l-1 -431q127 3 260 3q57 0 95 -38.5t38 -92.5q0 -53 -38 -91t-95 -38q-54 0 -161.5 -2.5t-161.5 -2.5q-63 0 -189.5 -17 t-190.5 -17q-57 0 -95 38t-38 92t38 92.5t95 38.5q65 0 172 14q-2 113 -2 434q0 261 19 498l-208 -6q-58 0 -96.5 37.5t-38.5 93.5zM171 1698q0 43 41 78q51 43 290 278q37 36 87 36q64 0 142 -57q28 -20 118 -102q51 -47 153 -142q35 -34 35 -73q0 -44 -38 -76.5t-89 -32.5 q-47 0 -87 33q-68 65 -210 192q-233 -245 -316 -245q-51 0 -88.5 33.5t-37.5 77.5z" />
<glyph unicode="&#xcf;" horiz-adv-x="1074" d="M34 1297q0 57 38 92q36 33 87 38q85 7 294 7q188 0 485 -40q118 -16 118 -133q0 -61 -48 -97q-39 -29 -89 -29t-274 27q-13 -177 -13 -470l-1 -431q127 3 260 3q57 0 95 -38.5t38 -92.5q0 -53 -38 -91t-95 -38q-54 0 -161.5 -2.5t-161.5 -2.5q-63 0 -189.5 -17 t-190.5 -17q-57 0 -95 38t-38 92t38 92.5t95 38.5q65 0 172 14q-2 113 -2 434q0 261 19 498l-208 -6q-58 0 -96.5 37.5t-38.5 93.5zM157 1705q0 46 60 86q56 38 108 38q186 0 185 -139q0 -48 -68 -87q-58 -35 -106 -35q-179 0 -179 137zM584 1691q0 135 199 135 q52 0 103 -35q59 -39 59 -94q0 -64 -66 -100q-54 -29 -129 -29q-57 0 -107 31q-59 37 -59 92z" />
<glyph unicode="&#xd0;" horiz-adv-x="1418" d="M-81 668q0 130 181 130q20 0 47 -1v539q0 56 52 107t107 51q30 0 162 -61q164 -75 175 -78q299 -110 486 -288q230 -220 230 -498q0 -167 -82.5 -319t-222.5 -242q-160 -103 -448 -103q-201 0 -335 85q-58 1 -91 37t-33 94v419q-26 -1 -45 -1q-183 0 -183 129zM411 213 q99 -50 194 -50q206 0 297 58q86 54 136.5 148t50.5 196q0 225 -240 387q-111 75 -438 210v-367q26 -1 114 -9q71 -6 114 -6q57 0 95.5 -36t38.5 -91q0 -56 -38.5 -91.5t-95.5 -35.5q-44 0 -114 6q-90 7 -114 8q2 -109 0 -327z" />
<glyph unicode="&#xd1;" horiz-adv-x="1598" d="M80 1341q0 58 49.5 103t112.5 45q71 0 157 -123q436 -622 861 -1015v146q0 474 -9 639q-2 28 -13 103q-9 68 -9 106q0 132 140 132q156 0 156 -482q0 -11 -1 -152q-6 -488 -6 -607q0 -48 -17 -152q-19 -123 -140 -123q-67 0 -151 75q-370 334 -835 935q-5 -250 -5 -307 q0 -76 3 -228.5t3 -228.5q0 -283 -138 -283q-70 0 -112 43q-38 39 -38 93q0 39 6.5 116.5t6.5 116.5q0 56 3.5 169.5t3.5 170.5q0 60 -2.5 182t-2.5 182q0 58 -11.5 172.5t-11.5 171.5zM318 1711q0 12 5 26q29 90 109 146q85 60 197 60q96 0 154 -37q35 -21 102 -96 q39 -42 86 -42q39 0 60 27q15 28 32 55q5 15 18 45q23 41 92 41q47 0 79 -26t32 -64q0 -36 -46 -110q-42 -68 -73 -95q-65 -54 -165 -54q-112 0 -180 30q-63 29 -125 103q-34 41 -66 41q-53 0 -93.5 -69.5t-105.5 -69.5q-44 0 -77 24q-35 26 -35 65z" />
<glyph unicode="&#xd2;" horiz-adv-x="1569" d="M112 557q0 326 204 595q230 302 578 302q335 0 502 -153.5t167 -461.5q0 -326 -188 -591q-217 -307 -566 -307q-285 0 -484 164q-213 174 -213 452zM384 557q0 -160 124 -259q119 -96 301 -96q211 0 352 207q129 189 129 430q0 202 -90 280q-86 75 -306 75 q-214 0 -367 -207q-143 -194 -143 -430zM777 1929q0 42 36 76t87 34q79 0 223 -149q141 -145 141 -210q0 -44 -38.5 -74.5t-88.5 -30.5q-62 0 -101 48l-92 118q-52 62 -115 104q-52 34 -52 84z" />
<glyph unicode="&#xd3;" horiz-adv-x="1569" d="M58 557q0 326 204 595q230 302 578 302q335 0 502 -153.5t167 -461.5q0 -326 -188 -591q-217 -307 -566 -307q-285 0 -484 164q-213 174 -213 452zM330 557q0 -160 124 -259q119 -96 301 -96q211 0 352 207q129 189 129 430q0 202 -90 280q-86 75 -306 75 q-214 0 -367 -207q-143 -194 -143 -430zM785 1679q0 36 40 78q36 32 70 65q103 112 121 129q88 78 155 78q51 0 88 -33.5t37 -75.5q0 -49 -51.5 -84t-126.5 -118q-79 -86 -125 -120q-37 -27 -82 -27q-51 0 -88.5 32.5t-37.5 75.5z" />
<glyph unicode="&#xd4;" horiz-adv-x="1569" d="M112 557q0 326 204 595q230 302 578 302q335 0 502 -153.5t167 -461.5q0 -326 -188 -591q-217 -307 -566 -307q-285 0 -484 164q-213 174 -213 452zM384 557q0 -160 124 -259q119 -96 301 -96q211 0 352 207q129 189 129 430q0 202 -90 280q-86 75 -306 75 q-214 0 -367 -207q-143 -194 -143 -430zM576 1654q0 43 41 78q51 43 290 278q37 36 87 36q64 0 142 -57q28 -20 118 -102q51 -47 153 -142q35 -34 35 -73q0 -44 -38 -76.5t-89 -32.5q-47 0 -87 33q-68 65 -210 192q-233 -245 -316 -245q-51 0 -88.5 33.5t-37.5 77.5z" />
<glyph unicode="&#xd5;" horiz-adv-x="1569" d="M112 557q0 326 204 595q230 302 578 302q335 0 502 -153.5t167 -461.5q0 -326 -188 -591q-217 -307 -566 -307q-285 0 -484 164q-213 174 -213 452zM384 557q0 -160 124 -259q119 -96 301 -96q211 0 352 207q129 189 129 430q0 202 -90 280q-86 75 -306 75 q-214 0 -367 -207q-143 -194 -143 -430zM521 1695q0 12 5 26q29 90 109 146q85 60 197 60q96 0 154 -37q35 -21 102 -96q39 -42 86 -42q39 0 60 27q15 28 32 55q5 15 18 45q23 41 92 41q47 0 79 -26t32 -64q0 -36 -46 -110q-42 -68 -73 -95q-65 -54 -165 -54q-112 0 -180 30 q-63 29 -125 103q-34 41 -66 41q-53 0 -93.5 -69.5t-105.5 -69.5q-44 0 -77 24q-35 26 -35 65z" />
<glyph unicode="&#xd6;" horiz-adv-x="1569" d="M58 557q0 326 204 595q230 302 578 302q335 0 502 -153.5t167 -461.5q0 -326 -188 -591q-217 -307 -566 -307q-285 0 -484 164q-213 174 -213 452zM330 557q0 -160 124 -259q119 -96 301 -96q211 0 352 207q129 189 129 430q0 202 -90 280q-86 75 -306 75 q-214 0 -367 -207q-143 -194 -143 -430zM520 1711q0 46 60 86q56 38 108 38q186 0 185 -139q0 -48 -68 -87q-58 -35 -106 -35q-179 0 -179 137zM947 1697q0 135 199 135q52 0 103 -35q59 -39 59 -94q0 -64 -66 -100q-54 -29 -129 -29q-57 0 -107 31q-59 37 -59 92z" />
<glyph unicode="&#xd7;" d="M192 827q0 49 39.5 87t93.5 38q83 0 273 -172q43 44 163 135q27 22 55.5 43t67.5 21q55 0 96 -36.5t41 -86.5q0 -58 -79 -121q-48 -33 -145 -119q201 -157 201 -246q0 -46 -27 -83q-35 -44 -93 -44q-66 0 -129 71q-95 106 -104 112q-56 -62 -113 -126q-34 -85 -128 -85 q-54 0 -94 32.5t-40 83.5q0 63 50 114q43 46 85 91q11 16 32 48q-109 99 -182 143q-63 38 -63 100z" />
<glyph unicode="&#xd8;" horiz-adv-x="1569" d="M41 35q0 43 147 190q-102 147 -102 331q0 331 209 601q230 298 575 298q277 0 436 -99q130 124 170 124q49 0 88.5 -33.5t39.5 -83.5q0 -42 -69 -119q-18 -20 -66 -67q69 -133 69 -338q0 -333 -192 -598q-218 -301 -563 -301q-242 0 -429 123q-139 -149 -184 -149 q-51 0 -90 36t-39 85zM359 556q0 -65 24 -126q243 242 726 730q-83 34 -239 34q-219 0 -372 -214q-139 -195 -139 -424zM547 255q105 -54 236 -54q217 0 357 215q125 190 125 423q0 79 -10 131q-97 -91 -238 -237q-213 -218 -234 -240z" />
<glyph unicode="&#xd9;" horiz-adv-x="1448" d="M75 715q0 47 4.5 140t4.5 141q0 37 2 111.5t2 111.5q0 77 28 145q38 90 105 90q53 0 93 -34q44 -37 44 -94q0 -55 -1.5 -166t-1.5 -166q0 -46 -4.5 -139.5t-4.5 -139.5q0 -149 34 -276q40 -153 118 -213q41 -32 192 -34q254 -4 342 432q46 226 46 634q0 53 32 103 q43 67 123 67q65 0 98 -48q25 -36 25 -79q0 -379 -36 -592q-54 -327 -212 -543q-70 -95 -169 -158q-121 -77 -249 -77q-245 0 -364 94q-251 199 -251 690zM514 1923q0 42 36 76t87 34q79 0 223 -149q141 -145 141 -210q0 -44 -38.5 -74.5t-88.5 -30.5q-62 0 -101 48l-92 118 q-52 62 -115 104q-52 34 -52 84z" />
<glyph unicode="&#xda;" horiz-adv-x="1448" d="M75 715q0 47 4.5 140t4.5 141q0 37 2 111.5t2 111.5q0 77 28 145q38 90 105 90q53 0 93 -34q44 -37 44 -94q0 -55 -1.5 -166t-1.5 -166q0 -46 -4.5 -139.5t-4.5 -139.5q0 -149 34 -276q40 -153 118 -213q41 -32 192 -34q254 -4 342 432q46 226 46 634q0 53 32 103 q43 67 123 67q65 0 98 -48q25 -36 25 -79q0 -379 -36 -592q-54 -327 -212 -543q-70 -95 -169 -158q-121 -77 -249 -77q-245 0 -364 94q-251 199 -251 690zM582 1686q0 36 40 78q36 32 70 65q103 112 121 129q88 78 155 78q51 0 88 -33.5t37 -75.5q0 -49 -51.5 -84 t-126.5 -118q-79 -86 -125 -120q-37 -27 -82 -27q-51 0 -88.5 32.5t-37.5 75.5z" />
<glyph unicode="&#xdb;" horiz-adv-x="1448" d="M75 715q0 47 4.5 140t4.5 141q0 37 2 111.5t2 111.5q0 77 28 145q38 90 105 90q53 0 93 -34q44 -37 44 -94q0 -55 -1.5 -166t-1.5 -166q0 -46 -4.5 -139.5t-4.5 -139.5q0 -149 34 -276q40 -153 118 -213q41 -32 192 -34q254 -4 342 432q46 226 46 634q0 53 32 103 q43 67 123 67q65 0 98 -48q25 -36 25 -79q0 -379 -36 -592q-54 -327 -212 -543q-70 -95 -169 -158q-121 -77 -249 -77q-245 0 -364 94q-251 199 -251 690zM348 1668q0 43 41 78q51 43 290 278q37 36 87 36q64 0 142 -57q28 -20 118 -102q51 -47 153 -142q35 -34 35 -73 q0 -44 -38 -76.5t-89 -32.5q-47 0 -87 33q-68 65 -210 192q-233 -245 -316 -245q-51 0 -88.5 33.5t-37.5 77.5z" />
<glyph unicode="&#xdc;" horiz-adv-x="1448" d="M75 715q0 47 4.5 140t4.5 141q0 37 2 111.5t2 111.5q0 77 28 145q38 90 105 90q53 0 93 -34q44 -37 44 -94q0 -55 -1.5 -166t-1.5 -166q0 -46 -4.5 -139.5t-4.5 -139.5q0 -149 34 -276q40 -153 118 -213q41 -32 192 -34q254 -4 342 432q46 226 46 634q0 53 32 103 q43 67 123 67q65 0 98 -48q25 -36 25 -79q0 -379 -36 -592q-54 -327 -212 -543q-70 -95 -169 -158q-121 -77 -249 -77q-245 0 -364 94q-251 199 -251 690zM358 1689q0 46 60 86q56 38 108 38q186 0 185 -139q0 -48 -68 -87q-58 -35 -106 -35q-179 0 -179 137zM785 1675 q0 135 199 135q52 0 103 -35q59 -39 59 -94q0 -64 -66 -100q-54 -29 -129 -29q-57 0 -107 31q-59 37 -59 92z" />
<glyph unicode="&#xdd;" horiz-adv-x="1248" d="M27 1331q0 55 44 94q40 35 94 35q63 0 115 -64l72 -115q7 -12 165 -281q100 -172 177 -271q73 147 210 444q29 66 86 201q37 86 125 86q53 0 93 -34q44 -38 44 -94q0 -33 -55 -147q-49 -101 -197 -436q-123 -281 -209 -440q-150 -276 -161 -293q-56 -83 -130 -83 q-53 0 -93 34q-45 39 -45 95q0 47 201 396q-74 106 -212 323q-104 160 -304 481q-20 33 -20 69zM552 1767q0 36 40 78q36 32 70 65q103 112 121 129q88 78 155 78q51 0 88 -33.5t37 -75.5q0 -49 -51.5 -84t-126.5 -118q-79 -86 -125 -120q-37 -27 -82 -27q-51 0 -88.5 32.5 t-37.5 75.5z" />
<glyph unicode="&#xde;" horiz-adv-x="1023" d="M58 101v268q0 135 18 379q19 264 21 378q-1 39 -1 125q0 105 19 154q32 85 125 84q114 -1 111 -182l119 5q155 8 321 -90q218 -130 218 -362q0 -246 -195 -391q-173 -127 -412 -127q-40 0 -91 8q-1 -90 -1 -249q0 -51 -35.5 -87.5t-90.5 -36.5q-54 0 -90 36.5t-36 87.5z M319 598q52 -9 83 -9q150 0 249 71q105 75 105 200q0 82 -98 145q-95 62 -208 62h-102q-11 -157 -29 -469z" />
<glyph unicode="&#xdf;" horiz-adv-x="1049" d="M83 -31q0 12 1 24q20 129 20 236q0 49 4.5 146.5t4.5 146.5q0 36 -1 107t-1 106q0 327 66 499q104 273 386 273q175 0 274 -130q86 -114 86 -279q0 -141 -178 -316q220 -167 220 -501q0 -168 -93 -260q-96 -95 -272 -95q-105 0 -132 14q-50 24 -50 121q0 41 23 71 q27 37 77 37q41 0 46 1t31 1q65 0 87 18q26 21 26 83q0 108 -33 189.5t-99 136.5q-51 38 -101 75q-56 49 -56 104q0 60 116.5 158.5t116.5 168.5q0 78 -23 116.5t-70 38.5q-102 0 -148 -116q-26 -66 -39 -201q-17 -186 -17 -410q0 -56 3.5 -168.5t3.5 -168.5 q0 -156 -13 -211q-29 -135 -134 -135q-53 0 -91 33q-41 34 -41 87z" />
<glyph unicode="&#xe0;" horiz-adv-x="1092" d="M54 442q0 231 171 395.5t409 164.5q91 0 211 -52q145 -62 145 -145q0 -34 -22 -60q-10 -38 -15 -96.5t-5 -135.5q0 -184 25 -264q3 -9 45 -100q37 -83 37 -94q0 -51 -39 -84.5t-90 -33.5q-44 0 -140 96q-88 -43 -155 -64.5t-115 -21.5q-231 0 -346.5 124t-115.5 371z M255 1478q0 42 36 76t87 34q79 0 223 -149q141 -145 141 -210q0 -44 -38.5 -74.5t-88.5 -30.5q-62 0 -101 48l-92 118q-52 62 -115 104q-52 34 -52 84zM320 434q0 -129 46 -193.5t138 -64.5q60 0 113 19.5t100 57.5q-29 229 -29 342q0 31 4.5 71t13.5 89q-20 9 -34.5 13.5 t-25.5 4.5q-130 0 -228 -102.5t-98 -236.5z" />
<glyph unicode="&#xe1;" horiz-adv-x="1092" d="M54 442q0 231 171 395.5t409 164.5q91 0 211 -52q145 -62 145 -145q0 -34 -22 -60q-10 -38 -15 -96.5t-5 -135.5q0 -184 25 -264q3 -9 45 -100q37 -83 37 -94q0 -51 -39 -84.5t-90 -33.5q-44 0 -140 96q-88 -43 -155 -64.5t-115 -21.5q-231 0 -346.5 124t-115.5 371z M320 434q0 -129 46 -193.5t138 -64.5q60 0 113 19.5t100 57.5q-29 229 -29 342q0 31 4.5 71t13.5 89q-20 9 -34.5 13.5t-25.5 4.5q-130 0 -228 -102.5t-98 -236.5zM419 1248q0 36 40 78q36 32 70 65q103 112 121 129q88 78 155 78q51 0 88 -33.5t37 -75.5q0 -49 -51.5 -84 t-126.5 -118q-79 -86 -125 -120q-37 -27 -82 -27q-51 0 -88.5 32.5t-37.5 75.5z" />
<glyph unicode="&#xe2;" horiz-adv-x="1092" d="M54 442q0 231 171 395.5t409 164.5q91 0 211 -52q145 -62 145 -145q0 -34 -22 -60q-10 -38 -15 -96.5t-5 -135.5q0 -184 25 -264q3 -9 45 -100q37 -83 37 -94q0 -51 -39 -84.5t-90 -33.5q-44 0 -140 96q-88 -43 -155 -64.5t-115 -21.5q-231 0 -346.5 124t-115.5 371z M145 1238q0 43 41 78q51 43 290 278q37 36 87 36q64 0 142 -57q28 -20 118 -102q51 -47 153 -142q35 -34 35 -73q0 -44 -38 -76.5t-89 -32.5q-47 0 -87 33q-68 65 -210 192q-233 -245 -316 -245q-51 0 -88.5 33.5t-37.5 77.5zM320 434q0 -129 46 -193.5t138 -64.5 q60 0 113 19.5t100 57.5q-29 229 -29 342q0 31 4.5 71t13.5 89q-20 9 -34.5 13.5t-25.5 4.5q-130 0 -228 -102.5t-98 -236.5z" />
<glyph unicode="&#xe3;" horiz-adv-x="1092" d="M54 442q0 231 171 395.5t409 164.5q91 0 211 -52q145 -62 145 -145q0 -34 -22 -60q-10 -38 -15 -96.5t-5 -135.5q0 -184 25 -264q3 -9 45 -100q37 -83 37 -94q0 -51 -39 -84.5t-90 -33.5q-44 0 -140 96q-88 -43 -155 -64.5t-115 -21.5q-231 0 -346.5 124t-115.5 371z M83 1241q0 12 5 26q29 90 109 146q85 60 197 60q96 0 154 -37q35 -21 102 -96q39 -42 86 -42q39 0 60 27q15 28 32 55q5 15 18 45q23 41 92 41q47 0 79 -26t32 -64q0 -36 -46 -110q-42 -68 -73 -95q-65 -54 -165 -54q-112 0 -180 30q-63 29 -125 103q-34 41 -66 41 q-53 0 -93.5 -69.5t-105.5 -69.5q-44 0 -77 24q-35 26 -35 65zM320 434q0 -129 46 -193.5t138 -64.5q60 0 113 19.5t100 57.5q-29 229 -29 342q0 31 4.5 71t13.5 89q-20 9 -34.5 13.5t-25.5 4.5q-130 0 -228 -102.5t-98 -236.5z" />
<glyph unicode="&#xe4;" horiz-adv-x="1092" d="M54 442q0 231 171 395.5t409 164.5q91 0 211 -52q145 -62 145 -145q0 -34 -22 -60q-10 -38 -15 -96.5t-5 -135.5q0 -184 25 -264q3 -9 45 -100q37 -83 37 -94q0 -51 -39 -84.5t-90 -33.5q-44 0 -140 96q-88 -43 -155 -64.5t-115 -21.5q-231 0 -346.5 124t-115.5 371z M213 1254q0 46 60 86q56 38 108 38q186 0 185 -139q0 -48 -68 -87q-58 -35 -106 -35q-179 0 -179 137zM320 434q0 -129 46 -193.5t138 -64.5q60 0 113 19.5t100 57.5q-29 229 -29 342q0 31 4.5 71t13.5 89q-20 9 -34.5 13.5t-25.5 4.5q-130 0 -228 -102.5t-98 -236.5z M640 1240q0 135 199 135q52 0 103 -35q59 -39 59 -94q0 -64 -66 -100q-54 -29 -129 -29q-57 0 -107 31q-59 37 -59 92z" />
<glyph unicode="&#xe5;" horiz-adv-x="1092" d="M54 442q0 231 171 395.5t409 164.5q91 0 211 -52q145 -62 145 -145q0 -34 -22 -60q-10 -38 -15 -96.5t-5 -135.5q0 -184 25 -264q3 -9 45 -100q37 -83 37 -94q0 -51 -39 -84.5t-90 -33.5q-44 0 -140 96q-88 -43 -155 -64.5t-115 -21.5q-231 0 -346.5 124t-115.5 371z M215 1394q0 138 113 219q107 75 274 75q133 0 229 -68q108 -72 108 -192q0 -151 -122 -226q-99 -62 -259 -63q-144 -2 -243 73q-100 73 -100 182zM320 434q0 -129 46 -193.5t138 -64.5q60 0 113 19.5t100 57.5q-29 229 -29 342q0 31 4.5 71t13.5 89q-20 9 -34.5 13.5 t-25.5 4.5q-130 0 -228 -102.5t-98 -236.5zM436 1395q1 -25 49.5 -45.5t103.5 -20.5q65 0 97 25t32 74q0 29 -33 48t-83 19q-169 0 -166 -100z" />
<glyph unicode="&#xe6;" horiz-adv-x="1792" d="M26 444q0 227 183 388q180 160 423 160q104 0 244 -46q30 -10 48 -56q129 113 313 113q162 0 272 -52q151 -71 151 -223q0 -107 -118 -188q-51 -35 -216 -108l-324 -143q92 -100 261 -100q204 0 285 104q34 44 87 44q49 0 87 -33.5t38 -80.5q0 -115 -195 -197 q-162 -70 -302 -70q-161 0 -279 60q-18 -56 -110 -56q-90 0 -119 62q-57 -34 -112 -51.5t-109 -17.5q-226 0 -369 143q-139 138 -139 348zM291 433q0 -101 74 -181q76 -82 176 -82q54 0 98 17t78 49q-18 102 -18 139q0 236 18 378q-38 19 -45 20.5t-55 1.5 q-133 0 -229.5 -105.5t-96.5 -236.5zM983 531q210 88 218 91q123 56 205 112q-63 36 -169 36q-178 0 -254 -239z" />
<glyph unicode="&#xe7;" horiz-adv-x="1009" d="M62 383q0 195 136 401q153 236 357 236q100 0 233 -54q162 -66 162 -155q0 -48 -32 -85q-36 -41 -90 -41q-41 0 -99 46t-174 46q-74 0 -160 -148q-83 -142 -83 -246q0 -103 73 -161q69 -56 182 -56q65 0 158 50t118 50q52 0 89 -38t37 -87q0 -50 -70 -103 q-63 -47 -156 -79q17 -30 26 -60.5t9 -62.5q0 -123 -71 -193t-200 -70q-92 0 -180 41q-105 50 -105 130q0 85 103 85q38 0 87 -22.5t83 -22.5q28 1 42 13t14 35q0 30 -29.5 56t-88.5 48q-164 36 -264 151q-107 122 -107 296z" />
<glyph unicode="&#xe8;" horiz-adv-x="1099" d="M45 406q0 243 128 411q142 186 383 186q167 0 277 -54q145 -71 145 -220q0 -106 -118 -188q-54 -37 -216 -109l-323 -143q46 -50 111 -75t150 -25q128 0 218 53q79 47 127 47q100 0 100 -97q0 -109 -160 -179q-135 -57 -285 -57q-230 0 -376 109q-161 121 -161 341z M257 1485q0 42 36 76t87 34q79 0 223 -149q141 -145 141 -210q0 -44 -38.5 -74.5t-88.5 -30.5q-62 0 -101 48l-92 118q-52 62 -115 104q-52 34 -52 84zM301 533q109 47 216 93q130 58 207 108q-64 37 -168 37q-89 0 -152.5 -59.5t-102.5 -178.5z" />
<glyph unicode="&#xe9;" horiz-adv-x="1099" d="M45 406q0 243 128 411q142 186 383 186q167 0 277 -54q145 -71 145 -220q0 -106 -118 -188q-54 -37 -216 -109l-323 -143q46 -50 111 -75t150 -25q128 0 218 53q79 47 127 47q100 0 100 -97q0 -109 -160 -179q-135 -57 -285 -57q-230 0 -376 109q-161 121 -161 341z M301 533q109 47 216 93q130 58 207 108q-64 37 -168 37q-89 0 -152.5 -59.5t-102.5 -178.5zM355 1248q0 36 40 78q36 32 70 65q103 112 121 129q88 78 155 78q51 0 88 -33.5t37 -75.5q0 -49 -51.5 -84t-126.5 -118q-79 -86 -125 -120q-37 -27 -82 -27q-51 0 -88.5 32.5 t-37.5 75.5z" />
<glyph unicode="&#xea;" horiz-adv-x="1099" d="M45 406q0 243 128 411q142 186 383 186q167 0 277 -54q145 -71 145 -220q0 -106 -118 -188q-54 -37 -216 -109l-323 -143q46 -50 111 -75t150 -25q128 0 218 53q79 47 127 47q100 0 100 -97q0 -109 -160 -179q-135 -57 -285 -57q-230 0 -376 109q-161 121 -161 341z M143 1230q0 43 41 78q51 43 290 278q37 36 87 36q64 0 142 -57q28 -20 118 -102q51 -47 153 -142q35 -34 35 -73q0 -44 -38 -76.5t-89 -32.5q-47 0 -87 33q-68 65 -210 192q-233 -245 -316 -245q-51 0 -88.5 33.5t-37.5 77.5zM301 533q109 47 216 93q130 58 207 108 q-64 37 -168 37q-89 0 -152.5 -59.5t-102.5 -178.5z" />
<glyph unicode="&#xeb;" horiz-adv-x="1099" d="M45 406q0 243 128 411q142 186 383 186q167 0 277 -54q145 -71 145 -220q0 -106 -118 -188q-54 -37 -216 -109l-323 -143q46 -50 111 -75t150 -25q128 0 218 53q79 47 127 47q100 0 100 -97q0 -109 -160 -179q-135 -57 -285 -57q-230 0 -376 109q-161 121 -161 341z M228 1347q0 46 60 86q56 38 108 38q186 0 185 -139q0 -48 -68 -87q-58 -35 -106 -35q-179 0 -179 137zM301 533q109 47 216 93q130 58 207 108q-64 37 -168 37q-89 0 -152.5 -59.5t-102.5 -178.5zM655 1333q0 135 199 135q52 0 103 -35q59 -39 59 -94q0 -64 -66 -100 q-54 -29 -129 -29q-57 0 -107 31q-59 37 -59 92z" />
<glyph unicode="&#xec;" horiz-adv-x="551" d="M24 1485q0 42 36 76t87 34q79 0 223 -149q141 -145 141 -210q0 -44 -38.5 -74.5t-88.5 -30.5q-62 0 -101 48l-92 118q-52 62 -115 104q-52 34 -52 84zM171 450q0 86 10 214.5t10 213.5q0 56 37.5 92t94.5 36q58 0 95.5 -36t37.5 -92q0 -85 -10 -213.5t-10 -214.5 q0 -54 3.5 -175t3.5 -176q0 -56 -37.5 -92t-94.5 -36q-58 0 -95.5 36t-37.5 92q0 55 -3.5 176t-3.5 175z" />
<glyph unicode="&#xed;" horiz-adv-x="551" d="M92 1248q0 36 40 78q36 32 70 65q103 112 121 129q88 78 155 78q51 0 88 -33.5t37 -75.5q0 -49 -51.5 -84t-126.5 -118q-79 -86 -125 -120q-37 -27 -82 -27q-51 0 -88.5 32.5t-37.5 75.5zM171 450q0 86 10 214.5t10 213.5q0 56 37.5 92t94.5 36q58 0 95.5 -36t37.5 -92 q0 -85 -10 -213.5t-10 -214.5q0 -54 3.5 -175t3.5 -176q0 -56 -37.5 -92t-94.5 -36q-58 0 -95.5 36t-37.5 92q0 55 -3.5 176t-3.5 175z" />
<glyph unicode="&#xee;" horiz-adv-x="551" d="M-136 1231q0 43 41 78q51 43 290 278q37 36 87 36q64 0 142 -57q28 -20 118 -102q51 -47 153 -142q35 -34 35 -73q0 -44 -38 -76.5t-89 -32.5q-47 0 -87 33q-68 65 -210 192q-233 -245 -316 -245q-51 0 -88.5 33.5t-37.5 77.5zM171 450q0 86 10 214.5t10 213.5 q0 56 37.5 92t94.5 36q58 0 95.5 -36t37.5 -92q0 -85 -10 -213.5t-10 -214.5q0 -54 3.5 -175t3.5 -176q0 -56 -37.5 -92t-94.5 -36q-58 0 -95.5 36t-37.5 92q0 55 -3.5 176t-3.5 175z" />
<glyph unicode="&#xef;" horiz-adv-x="551" d="M-105 1254q0 46 60 86q56 38 108 38q186 0 185 -139q0 -48 -68 -87q-58 -35 -106 -35q-179 0 -179 137zM133 450q0 86 10 214.5t10 213.5q0 56 37.5 92t94.5 36q58 0 95.5 -36t37.5 -92q0 -85 -10 -213.5t-10 -214.5q0 -54 3.5 -175t3.5 -176q0 -56 -37.5 -92t-94.5 -36 q-58 0 -95.5 36t-37.5 92q0 55 -3.5 176t-3.5 175zM322 1240q0 135 199 135q52 0 103 -35q59 -39 59 -94q0 -64 -66 -100q-54 -29 -129 -29q-57 0 -107 31q-59 37 -59 92z" />
<glyph unicode="&#xf0;" horiz-adv-x="1000" d="M84 363q0 196 138 347q128 143 329 194q-32 62 -64 113q-171 -101 -216 -101q-54 0 -91 39t-37 88q0 56 62 102q15 11 113 65q-115 85 -115 146q0 48 37 84t88 36q67 0 210 -150q155 75 218 75q56 0 92.5 -34.5t36.5 -87.5q0 -47 -34 -75q-4 -3 -74 -43q-15 -9 -66 -29 l-15 -6q238 -347 238 -593q0 -228 -97 -381q-121 -191 -358 -191q-162 0 -281 126q-114 122 -114 276zM332 363q0 -60 46 -113t101 -53q207 0 207 336q0 46 -40 154q-37 -8 -112 -31q-202 -75 -202 -293z" />
<glyph unicode="&#xf1;" horiz-adv-x="1029" d="M65 241q0 92 13.5 256t13.5 257q0 28 -3.5 85.5t-3.5 84.5q0 54 39 89t96 35q126 0 134 -150l1 -11q140 141 296 141q181 0 250 -152q47 -101 47 -304v-68q-1 -44 -1 -62q0 -75 20.5 -193t20.5 -192q0 -54 -38.5 -89.5t-95.5 -35.5q-118 0 -131 116q-14 99 -27 199 q-14 105 -14 198q0 25 3 85.5t3 85.5q0 7 2 34.5t2 44.5q0 80 -41 80q-88 0 -173 -103.5t-133 -261.5q-2 -32 -9 -85q-6 -43 -6 -84q0 -27 6.5 -81t6.5 -81q0 -55 -38 -91t-96 -36q-57 0 -94.5 36t-37.5 91q0 27 -6 81t-6 81zM104 1260q0 12 5 26q29 90 109 146 q85 60 197 60q96 0 154 -37q35 -21 102 -96q39 -42 86 -42q39 0 60 27q15 28 32 55q5 15 18 45q23 41 92 41q47 0 79 -26t32 -64q0 -36 -46 -110q-42 -68 -73 -95q-65 -54 -165 -54q-112 0 -180 30q-63 29 -125 103q-34 41 -66 41q-53 0 -93.5 -69.5t-105.5 -69.5 q-44 0 -77 24q-35 26 -35 65z" />
<glyph unicode="&#xf2;" horiz-adv-x="1033" d="M86 421q-6 213 116 379q146 196 407 196q192 0 305 -154q102 -138 102 -343q0 -223 -119 -380q-134 -176 -359 -176q-177 0 -305 122q-140 134 -147 356zM352 421q0 -115 65 -176q52 -49 121 -49q84 0 145 56q70 67 75 180q13 309 -162 310q-118 1 -186 -107 q-58 -92 -58 -214zM366 1485q0 42 36 76t87 34q79 0 223 -149q141 -145 141 -210q0 -44 -38.5 -74.5t-88.5 -30.5q-62 0 -101 48l-92 118q-52 62 -115 104q-52 34 -52 84z" />
<glyph unicode="&#xf3;" horiz-adv-x="1033" d="M48 421q-6 213 116 379q146 196 407 196q192 0 305 -154q102 -138 102 -343q0 -223 -119 -380q-134 -176 -359 -176q-177 0 -305 122q-140 134 -147 356zM314 421q0 -115 65 -176q52 -49 121 -49q84 0 145 56q70 67 75 180q13 309 -162 310q-118 1 -186 -107 q-58 -92 -58 -214zM338 1248q0 36 40 78q36 32 70 65q103 112 121 129q88 78 155 78q51 0 88 -33.5t37 -75.5q0 -49 -51.5 -84t-126.5 -118q-79 -86 -125 -120q-37 -27 -82 -27q-51 0 -88.5 32.5t-37.5 75.5z" />
<glyph unicode="&#xf4;" horiz-adv-x="1033" d="M86 421q-6 213 116 379q146 196 407 196q192 0 305 -154q102 -138 102 -343q0 -223 -119 -380q-134 -176 -359 -176q-177 0 -305 122q-140 134 -147 356zM166 1230q0 43 41 78q51 43 290 278q37 36 87 36q64 0 142 -57q28 -20 118 -102q51 -47 153 -142q35 -34 35 -73 q0 -44 -38 -76.5t-89 -32.5q-47 0 -87 33q-68 65 -210 192q-233 -245 -316 -245q-51 0 -88.5 33.5t-37.5 77.5zM352 421q0 -115 65 -176q52 -49 121 -49q84 0 145 56q70 67 75 180q13 309 -162 310q-118 1 -186 -107q-58 -92 -58 -214z" />
<glyph unicode="&#xf5;" horiz-adv-x="1033" d="M86 421q-6 213 116 379q146 196 407 196q192 0 305 -154q102 -138 102 -343q0 -223 -119 -380q-134 -176 -359 -176q-177 0 -305 122q-140 134 -147 356zM161 1260q0 12 5 26q29 90 109 146q85 60 197 60q96 0 154 -37q35 -21 102 -96q39 -42 86 -42q39 0 60 27 q15 28 32 55q5 15 18 45q23 41 92 41q47 0 79 -26t32 -64q0 -36 -46 -110q-42 -68 -73 -95q-65 -54 -165 -54q-112 0 -180 30q-63 29 -125 103q-34 41 -66 41q-53 0 -93.5 -69.5t-105.5 -69.5q-44 0 -77 24q-35 26 -35 65zM352 421q0 -115 65 -176q52 -49 121 -49 q84 0 145 56q70 67 75 180q13 309 -162 310q-118 1 -186 -107q-58 -92 -58 -214z" />
<glyph unicode="&#xf6;" horiz-adv-x="1033" d="M48 421q-6 213 116 379q146 196 407 196q192 0 305 -154q102 -138 102 -343q0 -223 -119 -380q-134 -176 -359 -176q-177 0 -305 122q-140 134 -147 356zM208 1254q0 46 60 86q56 38 108 38q186 0 185 -139q0 -48 -68 -87q-58 -35 -106 -35q-179 0 -179 137zM314 421 q0 -115 65 -176q52 -49 121 -49q84 0 145 56q70 67 75 180q13 309 -162 310q-118 1 -186 -107q-58 -92 -58 -214zM635 1240q0 135 199 135q52 0 103 -35q59 -39 59 -94q0 -64 -66 -100q-54 -29 -129 -29q-57 0 -107 31q-59 37 -59 92z" />
<glyph unicode="&#xf7;" d="M147 614q0 76 60 99q35 13 127 13q56 0 168 5.5t169 5.5q12 0 35 -2t35 -2q19 0 58 2t59 2q196 0 196 -118q0 -46 -34.5 -81.5t-86.5 -35.5q-12 0 -35 3.5t-35 3.5q-88 0 -264.5 -6t-264.5 -6q-69 0 -122 26q-65 32 -65 91zM447 980q0 51 36 82.5t91 31.5 q53 0 88.5 -32.5t35.5 -81.5q0 -51 -36 -82.5t-90 -31.5t-89.5 32.5t-35.5 81.5zM466 294q0 47 36 81t87 34t87.5 -34t36.5 -81t-36.5 -80.5t-87.5 -33.5t-87 33.5t-36 80.5z" />
<glyph unicode="&#xf8;" horiz-adv-x="1048" d="M30 21q0 28 23 57q31 38 74 85q-66 112 -69 258q-8 213 115 379q146 196 407 196q146 0 248 -92q13 18 41 50q32 38 67 38q36 0 62.5 -25.5t26.5 -60.5q0 -25 -17 -51q-27 -41 -75 -98q53 -116 53 -258q0 -223 -119 -380q-133 -176 -357 -176q-148 0 -265 88 q-37 -41 -64 -67q-31 -30 -63 -30q-34 0 -61 26.5t-27 60.5zM324 421q0 -28 3 -54l25 26q184 188 307 319q-37 30 -92 30q-119 1 -186 -107q-57 -92 -57 -214zM422 220q42 -24 88 -24q82 0 144 56q71 66 76 180q2 59 -2 105l-74 -76q-51 -54 -232 -241z" />
<glyph unicode="&#xf9;" horiz-adv-x="1022" d="M105 630q0 125 29 285q19 108 129 108q56 0 95.5 -35t39.5 -88q0 -43 -14 -133t-14 -137q0 -136 9 -237t27 -167q24 -11 46.5 -16.5t44.5 -5.5q106 0 234 30q0 74 -1 168q-2 113 -2 162q0 196 18 339q15 115 131 115q56 0 96.5 -35.5t37.5 -89.5q-18 -366 -18 -338 q0 -64 1 -194t1 -194q0 -20 3.5 -60t3.5 -60q0 -54 -39 -89t-96 -35q-80 0 -116 72q-123 -45 -254 -45q-137 0 -230 58q-105 66 -125 193q-37 240 -37 429zM340 1493q0 42 36 76t87 34q79 0 223 -149q141 -145 141 -210q0 -44 -38.5 -74.5t-88.5 -30.5q-62 0 -101 48 l-92 118q-52 62 -115 104q-52 34 -52 84z" />
<glyph unicode="&#xfa;" horiz-adv-x="1022" d="M105 630q0 125 29 285q19 108 129 108q56 0 95.5 -35t39.5 -88q0 -43 -14 -133t-14 -137q0 -136 9 -237t27 -167q24 -11 46.5 -16.5t44.5 -5.5q106 0 234 30q0 74 -1 168q-2 113 -2 162q0 196 18 339q15 115 131 115q56 0 96.5 -35.5t37.5 -89.5q-18 -366 -18 -338 q0 -64 1 -194t1 -194q0 -20 3.5 -60t3.5 -60q0 -54 -39 -89t-96 -35q-80 0 -116 72q-123 -45 -254 -45q-137 0 -230 58q-105 66 -125 193q-37 240 -37 429zM454 1248q0 36 40 78q36 32 70 65q103 112 121 129q88 78 155 78q51 0 88 -33.5t37 -75.5q0 -49 -51.5 -84 t-126.5 -118q-79 -86 -125 -120q-37 -27 -82 -27q-51 0 -88.5 32.5t-37.5 75.5z" />
<glyph unicode="&#xfb;" horiz-adv-x="1022" d="M105 630q0 125 29 285q19 108 129 108q56 0 95.5 -35t39.5 -88q0 -43 -14 -133t-14 -137q0 -136 9 -237t27 -167q24 -11 46.5 -16.5t44.5 -5.5q106 0 234 30q0 74 -1 168q-2 113 -2 162q0 196 18 339q15 115 131 115q56 0 96.5 -35.5t37.5 -89.5q-18 -366 -18 -338 q0 -64 1 -194t1 -194q0 -20 3.5 -60t3.5 -60q0 -54 -39 -89t-96 -35q-80 0 -116 72q-123 -45 -254 -45q-137 0 -230 58q-105 66 -125 193q-37 240 -37 429zM184 1230q0 43 41 78q51 43 290 278q37 36 87 36q64 0 142 -57q28 -20 118 -102q51 -47 153 -142q35 -34 35 -73 q0 -44 -38 -76.5t-89 -32.5q-47 0 -87 33q-68 65 -210 192q-233 -245 -316 -245q-51 0 -88.5 33.5t-37.5 77.5z" />
<glyph unicode="&#xfc;" horiz-adv-x="1022" d="M105 630q0 125 29 285q19 108 129 108q56 0 95.5 -35t39.5 -88q0 -43 -14 -133t-14 -137q0 -136 9 -237t27 -167q24 -11 46.5 -16.5t44.5 -5.5q106 0 234 30q0 74 -1 168q-2 113 -2 162q0 196 18 339q15 115 131 115q56 0 96.5 -35.5t37.5 -89.5q-18 -366 -18 -338 q0 -64 1 -194t1 -194q0 -20 3.5 -60t3.5 -60q0 -54 -39 -89t-96 -35q-80 0 -116 72q-123 -45 -254 -45q-137 0 -230 58q-105 66 -125 193q-37 240 -37 429zM237 1254q0 46 60 86q56 38 108 38q186 0 185 -139q0 -48 -68 -87q-58 -35 -106 -35q-179 0 -179 137zM664 1240 q0 135 199 135q52 0 103 -35q59 -39 59 -94q0 -64 -66 -100q-54 -29 -129 -29q-57 0 -107 31q-59 37 -59 92z" />
<glyph unicode="&#xfd;" horiz-adv-x="1086" d="M6 866q0 52 41 91t95 39q63 0 99 -47q136 -181 318 -546q102 228 125 275q68 143 133 251q41 69 113 69q54 0 96 -36.5t42 -88.5q0 -28 -16 -62q-104 -218 -331 -684q-123 -251 -187 -416q-20 -59 -64 -177q-34 -90 -122 -90q-55 0 -96.5 35.5t-41.5 89.5q0 89 204 529 q-106 208 -335 613q-23 37 -47 74q-26 44 -26 81zM284 1248q0 36 40 78q36 32 70 65q103 112 121 129q88 78 155 78q51 0 88 -33.5t37 -75.5q0 -49 -51.5 -84t-126.5 -118q-79 -86 -125 -120q-37 -27 -82 -27q-51 0 -88.5 32.5t-37.5 75.5z" />
<glyph unicode="&#xfe;" horiz-adv-x="1051" d="M69 1231q0 80 36 138q41 65 111 65q54 0 90 -36.5t36 -88.5v-379q134 78 266 78q220 0 322 -189q76 -143 76 -370q0 -212 -120 -352q-129 -150 -345 -150q-83 0 -173 19l-1 -394q0 -56 -37.5 -93t-95.5 -37q-57 0 -94.5 37t-37.5 93q0 46 2 361q2 235 0 383 q-3 210 -14 361q-21 305 -21 554zM359 635q12 -200 12 -400q87 -29 170 -29q99 0 152 70q48 65 48 173q0 132 -11 182q-28 118 -122 118q-122 0 -249 -114z" />
<glyph unicode="&#xff;" horiz-adv-x="1086" d="M6 866q0 52 41 91t95 39q63 0 99 -47q136 -181 318 -546q102 228 125 275q68 143 133 251q41 69 113 69q54 0 96 -36.5t42 -88.5q0 -28 -16 -62q-104 -218 -331 -684q-123 -251 -187 -416q-20 -59 -64 -177q-34 -90 -122 -90q-55 0 -96.5 35.5t-41.5 89.5q0 89 204 529 q-106 208 -335 613q-23 37 -47 74q-26 44 -26 81zM172 1254q0 46 60 86q56 38 108 38q186 0 185 -139q0 -48 -68 -87q-58 -35 -106 -35q-179 0 -179 137zM599 1240q0 135 199 135q52 0 103 -35q59 -39 59 -94q0 -64 -66 -100q-54 -29 -129 -29q-57 0 -107 31q-59 37 -59 92z " />
<glyph unicode="&#x152;" horiz-adv-x="2347" d="M86 558q0 327 205 598q230 303 579 303q129 0 232.5 -21.5t180.5 -64.5v11q-1 65 34 105.5t99 40.5q44 0 79 -23q111 28 211 42t189 14q240 0 388 -57q88 -33 88 -122q0 -50 -34 -88q-39 -44 -98 -44q-19 0 -41 6q-158 43 -303 43q-70 0 -152 -11.5t-177 -35.5 q2 -16 3 -32.5t1 -35.5q0 -132 -13 -311q54 3 375 35q184 18 232 18q56 0 96.5 -36t40.5 -95q0 -114 -121 -130q-77 -6 -230 -19q-137 -15 -411 -37q-6 -105 -6 -197q0 -188 22 -214q11 -13 120 -13q60 0 180 3.5t179 3.5q19 0 56.5 5t56.5 5q55 0 95 -31q46 -36 46 -100 q0 -108 -114 -129q-91 -17 -397 -17q-241 0 -339 41q-119 50 -154 198q-102 -112 -227.5 -169t-273.5 -57q-284 0 -483 165q-214 174 -214 453zM359 558q0 -160 124 -260q119 -96 300 -96q212 0 353 208q129 190 129 432q0 202 -90 281q-86 75 -305 75q-214 0 -368 -208 q-143 -195 -143 -432z" />
<glyph unicode="&#x153;" horiz-adv-x="1763" d="M41 421q-6 213 116 379q145 196 407 196q201 0 311 -161q141 168 367 168q167 0 278 -55q145 -71 145 -220q0 -106 -118 -188q-53 -36 -216 -108l-324 -143q93 -101 261 -101q62 0 145 22q99 26 124 62q45 65 103 65q49 0 86.5 -34t37.5 -81q0 -111 -185 -194 q-162 -73 -311 -73q-278 0 -425 153q-134 -165 -350 -165q-177 0 -305 122q-140 134 -147 356zM307 422q0 -115 65 -176q52 -50 121 -50q84 0 145 57q70 66 75 180q13 309 -162 310q-118 1 -186 -107q-58 -92 -58 -214zM988 532l216 94q129 58 206 108q-62 36 -168 36 q-178 0 -254 -238z" />
<glyph unicode="&#x178;" horiz-adv-x="1248" d="M27 1331q0 55 44 94q40 35 94 35q63 0 115 -64l72 -115q7 -12 165 -281q100 -172 177 -271q73 147 210 444q29 66 86 201q37 86 125 86q53 0 93 -34q44 -38 44 -94q0 -33 -55 -147q-49 -101 -197 -436q-123 -281 -209 -440q-150 -276 -161 -293q-56 -83 -130 -83 q-53 0 -93 34q-45 39 -45 95q0 47 201 396q-74 106 -212 323q-104 160 -304 481q-20 33 -20 69zM304 1691q0 46 60 86q56 38 108 38q186 0 185 -139q0 -48 -68 -87q-58 -35 -106 -35q-179 0 -179 137zM731 1677q0 135 199 135q52 0 103 -35q59 -39 59 -94q0 -64 -66 -100 q-54 -29 -129 -29q-57 0 -107 31q-59 37 -59 92z" />
<glyph unicode="&#x2c6;" horiz-adv-x="1093" d="M148 1230q0 43 41 78q51 43 290 278q37 36 87 36q64 0 142 -57q28 -20 118 -102q51 -47 153 -142q35 -34 35 -73q0 -44 -38 -76.5t-89 -32.5q-47 0 -87 33q-68 65 -210 192q-233 -245 -316 -245q-51 0 -88.5 33.5t-37.5 77.5z" />
<glyph unicode="&#x2dc;" horiz-adv-x="1093" d="M125 1260q0 12 5 26q29 90 109 146q85 60 197 60q96 0 154 -37q35 -21 102 -96q39 -42 86 -42q39 0 60 27q15 28 32 55q5 15 18 45q23 41 92 41q47 0 79 -26t32 -64q0 -36 -46 -110q-42 -68 -73 -95q-65 -54 -165 -54q-112 0 -180 30q-63 29 -125 103q-34 41 -66 41 q-53 0 -93.5 -69.5t-105.5 -69.5q-44 0 -77 24q-35 26 -35 65z" />
<glyph unicode="&#x2000;" horiz-adv-x="1083" />
<glyph unicode="&#x2001;" horiz-adv-x="2166" />
<glyph unicode="&#x2002;" horiz-adv-x="1083" />
<glyph unicode="&#x2003;" horiz-adv-x="2166" />
<glyph unicode="&#x2004;" horiz-adv-x="722" />
<glyph unicode="&#x2005;" horiz-adv-x="541" />
<glyph unicode="&#x2006;" horiz-adv-x="361" />
<glyph unicode="&#x2007;" horiz-adv-x="361" />
<glyph unicode="&#x2008;" horiz-adv-x="270" />
<glyph unicode="&#x2009;" horiz-adv-x="433" />
<glyph unicode="&#x200a;" horiz-adv-x="120" />
<glyph unicode="&#x2010;" d="M210 519q0 56 53 89q45 28 105 28q76 0 227.5 4t227.5 4q59 0 104 -24q58 -31 58 -91q0 -105 -146 -115q-132 -10 -471 -10q-60 0 -105 27q-53 33 -53 88z" />
<glyph unicode="&#x2011;" d="M210 519q0 56 53 89q45 28 105 28q76 0 227.5 4t227.5 4q59 0 104 -24q58 -31 58 -91q0 -105 -146 -115q-132 -10 -471 -10q-60 0 -105 27q-53 33 -53 88z" />
<glyph unicode="&#x2012;" d="M210 519q0 56 53 89q45 28 105 28q76 0 227.5 4t227.5 4q59 0 104 -24q58 -31 58 -91q0 -105 -146 -115q-132 -10 -471 -10q-60 0 -105 27q-53 33 -53 88z" />
<glyph unicode="&#x2013;" horiz-adv-x="867" d="M4 621q0 80 146 100q52 8 231 8q53 0 159.5 -6t159.5 -6q57 0 95 -28t38 -70q0 -41 -38 -69t-95 -28q-53 0 -159.5 6t-159.5 6q-41 0 -122 -6t-122 -6q-56 0 -94.5 28t-38.5 71z" />
<glyph unicode="&#x2014;" horiz-adv-x="1735" d="M26 620q0 89 129 95q42 2 220 2q117 0 352 -4.5t352 -4.5q380 0 408 8l68 1q56 0 89.5 -26t33.5 -64q0 -53 -70 -81q-57 -23 -135 -23q-26 0 -85 2t-85 2l-1141 -3q-58 0 -97 26.5t-39 69.5z" />
<glyph unicode="&#x2018;" horiz-adv-x="444" d="M74 1405q0 52 32 85.5t85 33.5q107 0 124 -107q33 -205 33 -249q0 -52 -32.5 -85t-85.5 -33q-55 0 -91 43q-26 31 -31 70q-34 209 -34 242z" />
<glyph unicode="&#x2019;" horiz-adv-x="444" d="M74 1168q0 -52 32.5 -85t85.5 -33q56 0 91 43q26 31 32 70q33 209 33 242q0 52 -32 85.5t-85 33.5q-106 0 -123 -107q-34 -205 -34 -249z" />
<glyph unicode="&#x201a;" horiz-adv-x="852" d="M207 -224q0 25 62 149q55 110 82 155q36 56 100 56q51 0 86.5 -32.5t35.5 -74.5q0 -19 -64 -148q-47 -94 -75 -148q-33 -63 -105 -63q-51 0 -86.5 32t-35.5 74z" />
<glyph unicode="&#x201c;" horiz-adv-x="852" d="M30 1421q0 47 41 78q38 29 89 29q90 0 118 -78q8 -22 51 -155t43 -138q0 -46 -38 -77.5t-90 -31.5q-83 0 -116 68q-15 29 -55 152q-43 131 -43 153zM433 1443q0 47 40 78q38 29 90 29q98 0 121 -87q6 -21 58 -160q43 -115 43 -149q0 -46 -38.5 -77.5t-88.5 -31.5 q-93 0 -122.5 80.5t-60.5 161.5q-42 117 -42 156z" />
<glyph unicode="&#x201d;" horiz-adv-x="852" d="M49 1154q0 -46 38.5 -77.5t89.5 -31.5q92 0 121.5 80.5t60.5 161.5q42 117 42 156q0 47 -38.5 77t-90.5 30q-99 0 -122 -87q-6 -21 -58 -160q-43 -115 -43 -149zM462 1157q0 -46 38.5 -77.5t89.5 -31.5q83 0 117 68q14 29 54 152q43 131 43 153q0 47 -39.5 77t-90.5 30 q-89 0 -118 -78q-8 -22 -51 -155t-43 -138z" />
<glyph unicode="&#x201e;" horiz-adv-x="844" d="M54 -224q0 25 61 149q55 110 83 155q35 56 100 56q50 0 86 -32.5t36 -74.5q0 -19 -65 -148q-47 -94 -75 -148q-32 -63 -104 -63q-51 0 -86.5 32t-35.5 74zM438 -224q0 25 61 149q55 110 83 155q35 56 100 56q50 0 86 -32.5t36 -74.5q0 -19 -65 -148q-47 -94 -75 -148 q-32 -63 -104 -63q-51 0 -86.5 32t-35.5 74z" />
<glyph unicode="&#x2022;" d="M345 728q0 79 67.5 136t163.5 57q95 0 162.5 -57t67.5 -136q0 -80 -67 -136t-163 -56t-163.5 56t-67.5 136z" />
<glyph unicode="&#x2026;" horiz-adv-x="1327" d="M132 16v41q0 41 48 64q37 17 84 17t84 -17q48 -23 48 -64v-41q0 -41 -48 -63q-37 -17 -84 -17t-84 17q-48 22 -48 63zM537 25v45q0 41 47 64q37 18 84 18t84 -18q47 -23 47 -64v-45q0 -41 -47 -64q-37 -18 -84 -18t-84 18q-47 23 -47 64zM951 22q0 12 8.5 30.5t9.5 26.5 q12 76 129 76q46 0 85 -19q48 -22 48 -64q0 -46 -28 -82q-39 -49 -117 -49q-47 0 -86 18q-49 22 -49 63z" />
<glyph unicode="&#x202f;" horiz-adv-x="433" />
<glyph unicode="&#x2039;" d="M230 583q0 66 86.5 104t192.5 140q144 140 174 162q39 30 82 30q51 0 88 -35t37 -81q0 -45 -40 -81q-82 -80 -253 -231q72 -70 224 -202q48 -39 48 -87q0 -46 -37 -81t-88 -35q-54 0 -134 68l-112 108q-89 85 -171 114q-97 34 -97 107z" />
<glyph unicode="&#x203a;" d="M281 296q0 52 52 90q112 76 333 232q-110 80 -212 177q-129 121 -129 170q0 47 39 81t89 34q52 0 93 -42q215 -221 385 -303q78 -37 78 -99q0 -47 -49 -89q-231 -199 -484 -347q-35 -21 -71 -21q-52 0 -88 35.5t-36 81.5z" />
<glyph unicode="&#x205f;" horiz-adv-x="541" />
<glyph unicode="&#x20ac;" horiz-adv-x="1216" d="M-111 591q0 39 29 66q34 30 91 30h65q13 52 34 104h-92q-56 0 -90 31q-30 27 -30 65q0 39 30 66q34 30 90 30h191q53 83 122 165q239 284 489 284q84 0 136 -11q42 41 102 41q98 0 121 -112q16 -81 16 -188q0 -48 -28 -88q-36 -52 -105 -52q-87 0 -128 92q-19 43 -38 51 q-15 7 -76 7q-122 0 -279 -188l-9 -11q29 1 103 4q61 2 109 2q57 0 89 -30q30 -26 30 -66q0 -38 -30 -66q-32 -30 -89 -30q-50 0 -125.5 -3t-124.5 -3q-35 0 -92 4q-29 -54 -49 -107q210 5 190 5q57 0 91 -30q29 -27 29 -65q0 -40 -29 -67q-34 -29 -91 -29q-49 0 -115 -3 q-73 -3 -109 -3q2 -103 72 -176t166 -73q95 0 193 50q34 18 146 94q75 50 113 50q58 0 98 -42q37 -40 37 -90q0 -57 -50 -99q-264 -223 -537 -223q-216 0 -365 157q-142 151 -142 358v3h-39q-57 0 -91 30q-29 27 -29 66z" />
<glyph unicode="&#x2122;" horiz-adv-x="1735" d="M36 1430q0 43 31.5 71.5t78.5 28.5q34 0 104 -6t104 -6q155 0 310 6q14 0 76 3q47 3 76 3q70 0 101 -50q31 52 94 52q145 0 201 -303q105 316 206 316q82 0 106 -79q22 -66 63 -201q22 -77 45 -154q28 -86 65 -148q17 -27 17 -52q0 -42 -35 -70.5t-79 -28.5 q-116 0 -194 325q-128 -309 -240 -309q-72 0 -100 81q-20 59 -45 205q-103 -281 -215 -281q-44 0 -78 30t-34 71q0 30 25 62q52 66 89 165q10 27 56 178q-19 -7 -36 -8q-90 -8 -265 -11q-1 -44 6 -128q8 -88 8 -128q0 -26 13 -76t13 -76q0 -42 -34.5 -70t-78.5 -28 q-68 0 -97 48q-23 36 -27 105q-2 53 -3 106q-10 83 -20 246q-23 1 -98 7q-62 5 -99 5q-47 0 -78.5 28.5t-31.5 70.5z" />
<glyph unicode="&#x25fc;" horiz-adv-x="1060" d="M0 0v1061h1061v-1061h-1061z" />
<glyph unicode="&#xfb01;" horiz-adv-x="1295" d="M34 844q0 89 94 117q42 12 168 16q1 18 12 109q56 445 432 445q81 0 112 -12q59 -23 59 -98q0 -131 -160 -131q-114 0 -155 -86q-22 -47 -39 -194l-3 -25q385 31 401 31q207 0 207 -138q0 -86 -10 -215t-10 -216q0 -54 3.5 -164t3.5 -165q0 -56 -37.5 -93t-94.5 -37 q-58 0 -95.5 37t-37.5 93q0 55 -3.5 165t-3.5 164l17 316q-20 1 -33 1q-43 0 -318 -20q-5 -147 -5 -175q0 -56 3.5 -170.5t3.5 -170.5q0 -176 -22 -279t-127 -103q-53 0 -93 35t-40 87q0 13 2 24q20 121 20 255q0 38 -2 226q-2 164 -1 251q-73 -6 -113 -6q-59 0 -97 34 t-38 92zM928 1299q0 59 45.5 101.5t106.5 42.5t106 -42t45 -102t-45 -101.5t-106 -41.5t-106.5 41.5t-45.5 101.5z" />
<glyph unicode="&#xfb02;" horiz-adv-x="1289" d="M29 834q0 90 94 117q42 13 168 17q13 245 50 341q48 127 179 179.5t425 62.5q24 1 75 -3q54 -3 73 -3q58 0 96 -36t38 -92q0 -145 -5 -332t-5 -332q0 -117 -14 -459q0 -73 -8 -215q-13 -125 -132 -125q-60 0 -96.5 37t-36.5 93q0 112 10.5 334.5t10.5 334.5q0 141 4 300 q5 181 6 273q-5 1 -12 1q-256 0 -326 -59q-52 -44 -67 -219q-2 -11 -6 -63q125 9 172 9q191 0 191 -130q0 -125 -169 -125q-17 0 -49.5 1.5t-45.5 1.5q-26 0 -110 -8q-1 -30 -1 -70q0 -56 3.5 -218t3.5 -219q0 -176 -22 -279t-127 -103q-54 0 -93.5 35t-39.5 87q0 43 11 134 t11 145q0 53 -4 228q-4 168 -4 240q-85 -7 -113 -7q-58 0 -96.5 34.5t-38.5 91.5z" />
<glyph horiz-adv-x="551" d="M133 450q0 86 10 214.5t10 213.5q0 56 37.5 92t94.5 36q58 0 95.5 -36t37.5 -92q0 -85 -10 -213.5t-10 -214.5q0 -54 3.5 -175t3.5 -176q0 -56 -37.5 -92t-94.5 -36q-58 0 -95.5 36t-37.5 92q0 55 -3.5 176t-3.5 175zM165 1296q0 60 45 101t107 41q61 0 106 -41t45 -101 t-45 -101t-106 -41q-62 0 -107 41t-45 101zM166 1639q0 36 40 78q36 32 70 65q103 112 121 129q88 78 155 78q51 0 88 -33.5t37 -75.5q0 -49 -51.5 -84t-126.5 -118q-79 -86 -125 -120q-37 -27 -82 -27q-51 0 -88.5 32.5t-37.5 75.5z" />
</font>
</defs>
</svg>
